<svg xmlns="http://www.w3.org/2000/svg" xmlns:xlink="http://www.w3.org/1999/xlink" width="1584" height="546.46" viewBox="0 0 1584 546.46"><defs><style>.cls-1{fill:none;}.cls-2{isolation:isolate;}.cls-3{fill:#263a7b;}.cls-4{clip-path:url(#clip-path);}.cls-5{clip-path:url(#clip-path-2);}.cls-6{fill:url(#linear-gradient);}.cls-7{fill:url(#linear-gradient-2);}.cls-8{fill:url(#linear-gradient-3);}.cls-10,.cls-23,.cls-24,.cls-37,.cls-38,.cls-50,.cls-51,.cls-64,.cls-65,.cls-77,.cls-78,.cls-9{mix-blend-mode:color-burn;}.cls-9{fill:url(#radial-gradient);}.cls-10{fill:url(#radial-gradient-2);}.cls-11,.cls-12,.cls-17,.cls-25,.cls-26,.cls-30,.cls-39,.cls-40,.cls-44,.cls-52,.cls-53,.cls-57,.cls-66,.cls-67,.cls-71,.cls-79,.cls-80,.cls-84{mix-blend-mode:color-dodge;}.cls-11{fill:url(#radial-gradient-3);}.cls-12{fill:url(#radial-gradient-4);}.cls-13{opacity:0.5;mix-blend-mode:multiply;}.cls-14{fill:url(#linear-gradient-4);}.cls-15{fill:url(#linear-gradient-5);}.cls-16{fill:url(#linear-gradient-6);}.cls-17{fill:url(#radial-gradient-7);}.cls-18{fill:url(#linear-gradient-9);}.cls-19{clip-path:url(#clip-path-5);}.cls-20{fill:url(#linear-gradient-10);}.cls-21{fill:url(#linear-gradient-11);}.cls-22{fill:url(#linear-gradient-12);}.cls-23{fill:url(#radial-gradient-13);}.cls-24{fill:url(#radial-gradient-14);}.cls-25{fill:url(#radial-gradient-15);}.cls-26{fill:url(#radial-gradient-16);}.cls-27{fill:url(#linear-gradient-13);}.cls-28{fill:url(#linear-gradient-14);}.cls-29{fill:url(#linear-gradient-15);}.cls-30{fill:url(#radial-gradient-19);}.cls-31{fill:url(#linear-gradient-18);}.cls-32{clip-path:url(#clip-path-8);}.cls-33{clip-path:url(#clip-path-9);}.cls-34{fill:url(#linear-gradient-19);}.cls-35{fill:url(#linear-gradient-20);}.cls-36{fill:url(#linear-gradient-21);}.cls-37{fill:url(#radial-gradient-25);}.cls-38{fill:url(#radial-gradient-26);}.cls-39{fill:url(#radial-gradient-27);}.cls-40{fill:url(#radial-gradient-28);}.cls-41{fill:url(#linear-gradient-22);}.cls-42{fill:url(#linear-gradient-23);}.cls-43{fill:url(#linear-gradient-24);}.cls-44{fill:url(#radial-gradient-31);}.cls-45{fill:url(#linear-gradient-27);}.cls-46{clip-path:url(#clip-path-12);}.cls-47{fill:url(#linear-gradient-28);}.cls-48{fill:url(#linear-gradient-29);}.cls-49{fill:url(#linear-gradient-30);}.cls-50{fill:url(#radial-gradient-37);}.cls-51{fill:url(#radial-gradient-38);}.cls-52{fill:url(#radial-gradient-39);}.cls-53{fill:url(#radial-gradient-40);}.cls-54{fill:url(#linear-gradient-31);}.cls-55{fill:url(#linear-gradient-32);}.cls-56{fill:url(#linear-gradient-33);}.cls-57{fill:url(#radial-gradient-43);}.cls-58{fill:url(#linear-gradient-36);}.cls-59{clip-path:url(#clip-path-15);}.cls-60{clip-path:url(#clip-path-16);}.cls-61{fill:url(#linear-gradient-37);}.cls-62{fill:url(#linear-gradient-38);}.cls-63{fill:url(#linear-gradient-39);}.cls-64{fill:url(#radial-gradient-49);}.cls-65{fill:url(#radial-gradient-50);}.cls-66{fill:url(#radial-gradient-51);}.cls-67{fill:url(#radial-gradient-52);}.cls-68{fill:url(#linear-gradient-40);}.cls-69{fill:url(#linear-gradient-41);}.cls-70{fill:url(#linear-gradient-42);}.cls-71{fill:url(#radial-gradient-55);}.cls-72{fill:url(#linear-gradient-45);}.cls-73{clip-path:url(#clip-path-19);}.cls-74{fill:url(#linear-gradient-46);}.cls-75{fill:url(#linear-gradient-47);}.cls-76{fill:url(#linear-gradient-48);}.cls-77{fill:url(#radial-gradient-61);}.cls-78{fill:url(#radial-gradient-62);}.cls-79{fill:url(#radial-gradient-63);}.cls-80{fill:url(#radial-gradient-64);}.cls-81{fill:url(#linear-gradient-49);}.cls-82{fill:url(#linear-gradient-50);}.cls-83{fill:url(#linear-gradient-51);}.cls-84{fill:url(#radial-gradient-67);}.cls-85{fill:url(#linear-gradient-54);}</style><clipPath id="clip-path" transform="translate(0 110.07)"><path class="cls-1" d="M595.7,183.08l1.19.07a13.81,13.81,0,0,0,13.67-12.74c3.38-47.88,33.93-87.89,78.6-103.85a45.65,45.65,0,1,0-4.61-27.39A147.14,147.14,0,0,0,583.19,168.48a13.69,13.69,0,0,0,12.51,14.6Zm134-155.65A18.28,18.28,0,1,1,711.48,45.7,18.3,18.3,0,0,1,729.75,27.43Z"/></clipPath><clipPath id="clip-path-2" transform="translate(0 110.07)"><path class="cls-1" d="M730.94-25C627.06-25,542.85,61.48,542.85,168.17s84.21,193.17,188.09,193.17S919,274.86,919,168.17,834.82-25,730.94-25Zm0,302.19c-58.63,0-106.15-48.81-106.15-109S671.5,99.53,730.13,99.53s107,8.43,107,68.64S789.57,277.19,730.94,277.19Z"/></clipPath><linearGradient id="linear-gradient" x1="289.04" y1="625.17" x2="865.22" y2="13.09" gradientUnits="userSpaceOnUse"><stop offset="0" stop-color="#ff001c"/><stop offset="0.22" stop-color="#ff009d"/><stop offset="0.26" stop-color="#f9049f"/><stop offset="0.31" stop-color="#e80fa3"/><stop offset="0.37" stop-color="#c2a"/><stop offset="0.44" stop-color="#a53cb4"/><stop offset="0.51" stop-color="#735dc0"/><stop offset="0.58" stop-color="#3785cf"/><stop offset="0.64" stop-color="#0ad"/><stop offset="0.85" stop-color="#5cc4bb"/><stop offset="1" stop-color="#64ff92"/></linearGradient><linearGradient id="linear-gradient-2" x1="322.58" y1="657.59" x2="898.76" y2="45.51" gradientUnits="userSpaceOnUse"><stop offset="0" stop-color="#ff001c"/><stop offset="0.22" stop-color="#ff009d"/><stop offset="0.26" stop-color="#f9049f"/><stop offset="0.31" stop-color="#e80fa3"/><stop offset="0.37" stop-color="#c2a"/><stop offset="0.44" stop-color="#a53cb4"/><stop offset="0.51" stop-color="#735dc0"/><stop offset="0.58" stop-color="#3785cf"/><stop offset="0.64" stop-color="#0ad"/><stop offset="0.9" stop-color="#71b297"/><stop offset="1" stop-color="#55a99c"/></linearGradient><linearGradient id="linear-gradient-3" x1="309.06" y1="644.5" x2="885.24" y2="32.42" gradientUnits="userSpaceOnUse"><stop offset="0" stop-color="#ff001c"/><stop offset="0.22" stop-color="#ff009d"/><stop offset="0.26" stop-color="#f9049f"/><stop offset="0.31" stop-color="#e80fa3"/><stop offset="0.37" stop-color="#c2a"/><stop offset="0.44" stop-color="#a53cb4"/><stop offset="0.51" stop-color="#735dc0"/><stop offset="0.58" stop-color="#3785cf"/><stop offset="0.64" stop-color="#0ad"/><stop offset="0.9" stop-color="#80dca2"/><stop offset="1" stop-color="#6dafa4"/></linearGradient><radialGradient id="radial-gradient" cx="685.16" cy="203.59" r="197.79" gradientTransform="translate(-36.11 -8.25) scale(1.04 1.07)" gradientUnits="userSpaceOnUse"><stop offset="0.72" stop-color="#fff"/><stop offset="0.82" stop-color="#fbfbfb"/><stop offset="0.94" stop-color="#eee"/><stop offset="1" stop-color="#e3e3e3"/></radialGradient><radialGradient id="radial-gradient-2" cx="794.1" cy="197.34" r="197.79" xlink:href="#radial-gradient"/><radialGradient id="radial-gradient-3" cx="703.91" cy="109.82" r="197.79" gradientTransform="translate(-36.11 -8.25) scale(1.04 1.07)" gradientUnits="userSpaceOnUse"><stop offset="0.77"/><stop offset="1" stop-color="#575757"/></radialGradient><radialGradient id="radial-gradient-4" cx="727.13" cy="238.51" r="148.48" gradientTransform="translate(-36.11 -8.25) scale(1.04 1.07)" gradientUnits="userSpaceOnUse"><stop offset="0.77"/><stop offset="1" stop-color="#333"/></radialGradient><linearGradient id="linear-gradient-4" x1="289.04" y1="625.17" x2="865.22" y2="13.09" gradientUnits="userSpaceOnUse"><stop offset="0" stop-color="#ff001c"/><stop offset="0.22" stop-color="#ff009d"/><stop offset="0.26" stop-color="#f9049f"/><stop offset="0.31" stop-color="#e80fa3"/><stop offset="0.37" stop-color="#c2a"/><stop offset="0.44" stop-color="#a53cb4"/><stop offset="0.51" stop-color="#735dc0"/><stop offset="0.58" stop-color="#3785cf"/><stop offset="0.64" stop-color="#0ad"/><stop offset="0.9" stop-color="#e9d013"/><stop offset="1" stop-color="#ffd400"/></linearGradient><linearGradient id="linear-gradient-5" x1="322.58" y1="657.59" x2="898.76" y2="45.51" xlink:href="#linear-gradient-4"/><linearGradient id="linear-gradient-6" x1="309.06" y1="644.5" x2="885.24" y2="32.42" gradientUnits="userSpaceOnUse"><stop offset="0" stop-color="#ff001c"/><stop offset="0.22" stop-color="#ff009d"/><stop offset="0.26" stop-color="#f9049f"/><stop offset="0.31" stop-color="#e80fa3"/><stop offset="0.37" stop-color="#c2a"/><stop offset="0.44" stop-color="#a53cb4"/><stop offset="0.51" stop-color="#735dc0"/><stop offset="0.58" stop-color="#3785cf"/><stop offset="0.64" stop-color="#0ad"/><stop offset="0.9" stop-color="#32a8a2"/><stop offset="1" stop-color="#5fa546"/></linearGradient><radialGradient id="radial-gradient-7" cx="703.84" cy="110.14" r="197.79" gradientTransform="matrix(1.04, 0, 0, 1.07, -35.56, -11.68)" xlink:href="#radial-gradient-3"/><linearGradient id="linear-gradient-9" x1="309.06" y1="644.5" x2="885.24" y2="32.42" xlink:href="#linear-gradient-4"/><clipPath id="clip-path-5" transform="translate(0 110.07)"><path class="cls-1" d="M832.76,30.72c-56.58-73.32-148.3-73.32-204.87,0s-56.58,192.19,0,265.51,148.29,73.32,204.87,0S889.33,104,832.76,30.72ZM672.51,238.4c-31.93-41.38-31.92-108.47,0-149.85-10.69,13.86,124.15,11.06,115.62,0,31.93,41.38,31.93,108.47,0,149.85S704.44,279.78,672.51,238.4Z"/></clipPath><linearGradient id="linear-gradient-10" x1="418.54" y1="551.11" x2="856.14" y2="86.25" gradientTransform="translate(341.24 -515.93) rotate(45)" xlink:href="#linear-gradient"/><linearGradient id="linear-gradient-11" x1="451.77" y1="582.83" x2="889.37" y2="117.96" gradientTransform="translate(341.24 -515.93) rotate(45)" xlink:href="#linear-gradient-2"/><linearGradient id="linear-gradient-12" x1="438.15" y1="569.81" x2="875.75" y2="104.95" gradientTransform="translate(341.24 -515.93) rotate(45)" xlink:href="#linear-gradient-3"/><radialGradient id="radial-gradient-13" cx="724.03" cy="233.12" r="162.56" gradientTransform="matrix(0.69, 0.9, -0.69, 0.9, 340.41, -702.2)" xlink:href="#radial-gradient"/><radialGradient id="radial-gradient-14" cx="813.57" cy="227.98" r="162.56" gradientTransform="matrix(0.69, 0.9, -0.69, 0.9, 340.41, -702.2)" xlink:href="#radial-gradient"/><radialGradient id="radial-gradient-15" cx="739.44" cy="156.06" r="162.56" gradientTransform="matrix(0.69, 0.9, -0.69, 0.9, 340.41, -702.2)" xlink:href="#radial-gradient-3"/><radialGradient id="radial-gradient-16" cx="758.53" cy="246.33" r="129.54" gradientTransform="matrix(0.69, 0.9, -0.69, 0.9, 340.41, -702.2)" xlink:href="#radial-gradient-4"/><linearGradient id="linear-gradient-13" x1="418.54" y1="551.11" x2="856.14" y2="86.25" gradientTransform="translate(341.24 -515.93) rotate(45)" xlink:href="#linear-gradient-4"/><linearGradient id="linear-gradient-14" x1="451.77" y1="582.83" x2="889.37" y2="117.96" gradientTransform="translate(341.24 -515.93) rotate(45)" xlink:href="#linear-gradient-4"/><linearGradient id="linear-gradient-15" x1="438.15" y1="569.81" x2="875.75" y2="104.95" gradientTransform="translate(341.24 -515.93) rotate(45)" xlink:href="#linear-gradient-6"/><radialGradient id="radial-gradient-19" cx="739.57" cy="156.23" r="162.56" gradientTransform="matrix(0.69, 0.9, -0.69, 0.89, 342.98, -704.6)" xlink:href="#radial-gradient-3"/><linearGradient id="linear-gradient-18" x1="438.15" y1="569.81" x2="875.75" y2="104.95" gradientTransform="translate(341.24 -515.93) rotate(45)" xlink:href="#linear-gradient-4"/><clipPath id="clip-path-8" transform="translate(0 110.07)"><path class="cls-1" d="M781.72,285.1h0a118.66,118.66,0,0,1-45.1,11.59A120.43,120.43,0,0,1,655.73,271,45.25,45.25,0,0,0,662,245.17a45.72,45.72,0,1,0-27,44.26,147.84,147.84,0,0,0,103.08,34.63,146,146,0,0,0,55.43-14.21A13.71,13.71,0,0,0,800,291.52,13.76,13.76,0,0,0,781.72,285.1ZM615.43,229.45a18.27,18.27,0,1,1-17.24,19.26A18.3,18.3,0,0,1,615.43,229.45Z"/></clipPath><clipPath id="clip-path-9" transform="translate(0 110.07)"><path class="cls-1" d="M719.82-26.37C616.1-20.6,536.82,70.42,542.75,177s94.8,188.2,198.52,182.43,183-96.79,177.07-203.31S823.54-32.14,719.82-26.37ZM736.6,275.36c-58.54,3.25-108.7-42.85-112-103S667.39,101.27,725.93,98s107.26,2.48,110.6,62.59S795.13,272.1,736.6,275.36Z"/></clipPath><linearGradient id="linear-gradient-19" x1="259.11" y1="564.75" x2="835.29" y2="-47.33" gradientTransform="matrix(1, -0.06, 0.06, 1, 24.64, 97.83)" xlink:href="#linear-gradient"/><linearGradient id="linear-gradient-20" x1="292.64" y1="597.17" x2="868.83" y2="-14.91" gradientTransform="matrix(1, -0.06, 0.06, 1, 24.64, 97.83)" xlink:href="#linear-gradient-2"/><linearGradient id="linear-gradient-21" x1="279.12" y1="584.08" x2="855.31" y2="-28" gradientTransform="matrix(1, -0.06, 0.06, 1, 24.64, 97.83)" xlink:href="#linear-gradient-3"/><radialGradient id="radial-gradient-25" cx="656.45" cy="147.17" r="197.79" gradientTransform="matrix(1.04, -0.06, 0.06, 1.07, -11.87, 91.59)" xlink:href="#radial-gradient"/><radialGradient id="radial-gradient-26" cx="765.39" cy="140.92" r="197.79" gradientTransform="matrix(1.04, -0.06, 0.06, 1.07, -11.87, 91.59)" xlink:href="#radial-gradient"/><radialGradient id="radial-gradient-27" cx="675.2" cy="53.41" r="197.79" gradientTransform="matrix(1.04, -0.06, 0.06, 1.07, -11.87, 91.59)" xlink:href="#radial-gradient-3"/><radialGradient id="radial-gradient-28" cx="698.42" cy="182.1" r="148.48" gradientTransform="matrix(1.04, -0.06, 0.06, 1.07, -11.87, 91.59)" xlink:href="#radial-gradient-4"/><linearGradient id="linear-gradient-22" x1="259.11" y1="564.75" x2="835.29" y2="-47.33" gradientTransform="matrix(1, -0.06, 0.06, 1, 24.64, 97.83)" xlink:href="#linear-gradient-4"/><linearGradient id="linear-gradient-23" x1="292.64" y1="597.17" x2="868.83" y2="-14.91" gradientTransform="matrix(1, -0.06, 0.06, 1, 24.64, 97.83)" xlink:href="#linear-gradient-4"/><linearGradient id="linear-gradient-24" x1="279.12" y1="584.08" x2="855.31" y2="-28" gradientTransform="matrix(1, -0.06, 0.06, 1, 24.64, 97.83)" xlink:href="#linear-gradient-6"/><radialGradient id="radial-gradient-31" cx="674.9" cy="53.84" r="197.79" gradientTransform="matrix(1.04, -0.05, 0.06, 1.07, -11.52, 88.14)" xlink:href="#radial-gradient-3"/><linearGradient id="linear-gradient-27" x1="279.12" y1="584.08" x2="855.31" y2="-28" gradientTransform="matrix(1, -0.06, 0.06, 1, 24.64, 97.83)" xlink:href="#linear-gradient-4"/><clipPath id="clip-path-12" transform="translate(0 110.07)"><path class="cls-1" d="M824.57,23.61C764-46.46,672.44-41.36,620,35s-45.82,195,14.74,265.1,152.14,65,204.55-11.37S885.13,93.68,824.57,23.61ZM676.1,239.87c-34.17-39.55-37.89-106.53-8.31-149.62-9.91,14.43,124.57,4.15,115.44-6.41,34.17,39.54,37.9,106.52,8.32,149.61S710.28,279.41,676.1,239.87Z"/></clipPath><linearGradient id="linear-gradient-28" x1="354.65" y1="529.55" x2="792.25" y2="64.7" gradientTransform="matrix(0.75, 0.67, -0.67, 0.75, 336.72, -436.25)" xlink:href="#linear-gradient"/><linearGradient id="linear-gradient-29" x1="387.88" y1="561.27" x2="825.49" y2="96.41" gradientTransform="matrix(0.75, 0.67, -0.67, 0.75, 336.72, -436.25)" xlink:href="#linear-gradient-2"/><linearGradient id="linear-gradient-30" x1="374.26" y1="548.26" x2="811.86" y2="83.4" gradientTransform="matrix(0.75, 0.67, -0.67, 0.75, 336.72, -436.25)" xlink:href="#linear-gradient-3"/><radialGradient id="radial-gradient-37" cx="668.64" cy="221.05" r="162.56" gradientTransform="matrix(0.74, 0.86, -0.64, 0.93, 325.55, -622.18)" xlink:href="#radial-gradient"/><radialGradient id="radial-gradient-38" cx="758.17" cy="215.91" r="162.56" gradientTransform="matrix(0.74, 0.86, -0.64, 0.93, 325.55, -622.18)" xlink:href="#radial-gradient"/><radialGradient id="radial-gradient-39" cx="684.05" cy="143.99" r="162.56" gradientTransform="matrix(0.74, 0.86, -0.64, 0.93, 325.55, -622.18)" xlink:href="#radial-gradient-3"/><radialGradient id="radial-gradient-40" cx="703.13" cy="234.26" r="129.54" gradientTransform="matrix(0.74, 0.86, -0.64, 0.93, 325.55, -622.18)" xlink:href="#radial-gradient-4"/><linearGradient id="linear-gradient-31" x1="354.65" y1="529.55" x2="792.25" y2="64.7" gradientTransform="matrix(0.75, 0.67, -0.67, 0.75, 336.72, -436.25)" xlink:href="#linear-gradient-4"/><linearGradient id="linear-gradient-32" x1="387.88" y1="561.27" x2="825.49" y2="96.41" gradientTransform="matrix(0.75, 0.67, -0.67, 0.75, 336.72, -436.25)" xlink:href="#linear-gradient-4"/><linearGradient id="linear-gradient-33" x1="374.26" y1="548.26" x2="811.86" y2="83.4" gradientTransform="matrix(0.75, 0.67, -0.67, 0.75, 336.72, -436.25)" xlink:href="#linear-gradient-6"/><radialGradient id="radial-gradient-43" cx="684.12" cy="144.38" r="162.56" gradientTransform="matrix(0.74, 0.86, -0.64, 0.93, 327.98, -624.72)" xlink:href="#radial-gradient-3"/><linearGradient id="linear-gradient-36" x1="374.26" y1="548.26" x2="811.86" y2="83.4" gradientTransform="matrix(0.75, 0.67, -0.67, 0.75, 336.72, -436.25)" xlink:href="#linear-gradient-4"/><clipPath id="clip-path-15" transform="translate(0 110.07)"><path class="cls-1" d="M875.76,208.22a146.3,146.3,0,0,0-60-155.43A13.7,13.7,0,1,0,800.23,75.4a119,119,0,0,1,52,104.51,117.7,117.7,0,0,1-2.34,18.18l-.8,0a45.65,45.65,0,1,0,26.63,10.17Zm-29.68,53.7a18.28,18.28,0,1,1,19.12-17.38A18.29,18.29,0,0,1,846.08,261.92Z"/></clipPath><clipPath id="clip-path-16" transform="translate(0 110.07)"><path class="cls-1" d="M743.79-29.48c-103.76-5-192,77.41-197.1,184s74.88,197,178.65,201.94,192-77.41,197.1-184S847.55-24.52,743.79-29.48ZM729.35,272.37c-58.56-2.8-103.69-53.82-100.82-114S678.47,92.07,737,94.87s106.43,13.53,103.56,73.67S787.92,275.17,729.35,272.37Z"/></clipPath><linearGradient id="linear-gradient-37" x1="332.81" y1="702.9" x2="909" y2="90.82" gradientTransform="matrix(1, 0.05, -0.05, 1, -27.53, -119.15)" xlink:href="#linear-gradient"/><linearGradient id="linear-gradient-38" x1="366.35" y1="735.32" x2="942.53" y2="123.24" gradientTransform="matrix(1, 0.05, -0.05, 1, -27.53, -119.15)" xlink:href="#linear-gradient-2"/><linearGradient id="linear-gradient-39" x1="352.83" y1="722.23" x2="929.02" y2="110.15" gradientTransform="matrix(1, 0.05, -0.05, 1, -27.53, -119.15)" xlink:href="#linear-gradient-3"/><radialGradient id="radial-gradient-49" cx="727.13" cy="276.17" r="197.79" gradientTransform="matrix(1.04, 0.05, -0.05, 1.07, -63.2, -129.12)" xlink:href="#radial-gradient"/><radialGradient id="radial-gradient-50" cx="836.08" cy="269.92" r="197.79" gradientTransform="matrix(1.04, 0.05, -0.05, 1.07, -63.2, -129.12)" xlink:href="#radial-gradient"/><radialGradient id="radial-gradient-51" cx="745.88" cy="182.41" r="197.79" gradientTransform="matrix(1.04, 0.05, -0.05, 1.07, -63.2, -129.12)" xlink:href="#radial-gradient-3"/><radialGradient id="radial-gradient-52" cx="769.1" cy="311.1" r="148.48" gradientTransform="matrix(1.04, 0.05, -0.05, 1.07, -63.2, -129.12)" xlink:href="#radial-gradient-4"/><linearGradient id="linear-gradient-40" x1="332.81" y1="702.9" x2="909" y2="90.82" gradientTransform="matrix(1, 0.05, -0.05, 1, -27.53, -119.15)" xlink:href="#linear-gradient-4"/><linearGradient id="linear-gradient-41" x1="366.35" y1="735.32" x2="942.53" y2="123.24" gradientTransform="matrix(1, 0.05, -0.05, 1, -27.53, -119.15)" xlink:href="#linear-gradient-4"/><linearGradient id="linear-gradient-42" x1="352.83" y1="722.23" x2="929.02" y2="110.15" gradientTransform="matrix(1, 0.05, -0.05, 1, -27.53, -119.15)" xlink:href="#linear-gradient-6"/><radialGradient id="radial-gradient-55" cx="746.12" cy="182.56" r="197.79" gradientTransform="matrix(1.04, 0.05, -0.06, 1.07, -62.49, -132.51)" xlink:href="#radial-gradient-3"/><linearGradient id="linear-gradient-45" x1="352.83" y1="722.23" x2="929.02" y2="110.15" gradientTransform="matrix(1, 0.05, -0.05, 1, -27.53, -119.15)" xlink:href="#linear-gradient-4"/><clipPath id="clip-path-19" transform="translate(0 110.07)"><path class="cls-1" d="M842.82,31c-53-75.94-144.62-80.32-204.63-9.78S572.5,210.53,625.51,286.47s144.62,80.32,204.63,9.78S895.83,107,842.82,31Zm-170,199.79C642.93,188,646.13,121,680,81.16c-11.34,13.33,123.48,17,115.49,5.52,29.91,42.86,26.71,109.87-7.16,149.67S702.76,273.69,672.84,230.83Z"/></clipPath><linearGradient id="linear-gradient-46" x1="504.46" y1="575.12" x2="942.06" y2="110.26" gradientTransform="matrix(0.67, 0.74, -0.74, 0.67, 337.97, -618.19)" xlink:href="#linear-gradient"/><linearGradient id="linear-gradient-47" x1="537.69" y1="606.84" x2="975.29" y2="141.98" gradientTransform="matrix(0.67, 0.74, -0.74, 0.67, 337.97, -618.19)" xlink:href="#linear-gradient-2"/><linearGradient id="linear-gradient-48" x1="524.07" y1="593.83" x2="961.67" y2="128.97" gradientTransform="matrix(0.67, 0.74, -0.74, 0.67, 337.97, -618.19)" xlink:href="#linear-gradient-3"/><radialGradient id="radial-gradient-61" cx="799.11" cy="244.85" r="162.56" gradientTransform="matrix(0.65, 0.93, -0.73, 0.86, 346.03, -804.29)" xlink:href="#radial-gradient"/><radialGradient id="radial-gradient-62" cx="888.65" cy="239.71" r="162.56" gradientTransform="matrix(0.65, 0.93, -0.73, 0.86, 346.03, -804.29)" xlink:href="#radial-gradient"/><radialGradient id="radial-gradient-63" cx="814.52" cy="167.79" r="162.56" gradientTransform="matrix(0.65, 0.93, -0.73, 0.86, 346.03, -804.29)" xlink:href="#radial-gradient-3"/><radialGradient id="radial-gradient-64" cx="833.61" cy="258.06" r="129.54" gradientTransform="matrix(0.65, 0.93, -0.73, 0.86, 346.03, -804.29)" xlink:href="#radial-gradient-4"/><linearGradient id="linear-gradient-49" x1="504.46" y1="575.12" x2="942.06" y2="110.26" gradientTransform="matrix(0.67, 0.74, -0.74, 0.67, 337.97, -618.19)" xlink:href="#linear-gradient-4"/><linearGradient id="linear-gradient-50" x1="537.69" y1="606.84" x2="975.29" y2="141.98" gradientTransform="matrix(0.67, 0.74, -0.74, 0.67, 337.97, -618.19)" xlink:href="#linear-gradient-4"/><linearGradient id="linear-gradient-51" x1="524.07" y1="593.83" x2="961.67" y2="128.97" gradientTransform="matrix(0.67, 0.74, -0.74, 0.67, 337.97, -618.19)" xlink:href="#linear-gradient-6"/><radialGradient id="radial-gradient-67" cx="814.69" cy="167.65" r="162.56" gradientTransform="matrix(0.64, 0.93, -0.74, 0.86, 348.71, -806.56)" xlink:href="#radial-gradient-3"/><linearGradient id="linear-gradient-54" x1="524.07" y1="593.83" x2="961.67" y2="128.97" gradientTransform="matrix(0.67, 0.74, -0.74, 0.67, 337.97, -618.19)" xlink:href="#linear-gradient-4"/></defs><g class="cls-2"><g id="Layer_2" data-name="Layer 2"><g id="Layer_1-2" data-name="Layer 1"><polygon class="cls-3" points="251.02 136 186.03 136 82.73 242.77 51.88 242.77 51.88 131.99 0 131.99 0 422.76 51.88 422.76 51.88 288.29 76.14 288.29 194.44 422.76 261.28 422.76 121.93 266.96 251.02 136"/><path class="cls-3" d="M421.83,23c-40.14,0-74.41,18-96,49.39-.86-13.3-2.25-27.78-4.22-40.6l-1.14-7.4-40.26,1.88V312.68h51.88V156.61c0-35.28,26.88-87.46,84.58-87.46,41.14,0,66.69,26.65,66.69,69.57v174h51.86v-174C535.19,69.53,489.64,23,421.83,23Z" transform="translate(0 110.07)"/><polygon class="cls-3" points="1187.99 349.82 1122.91 136 1074.19 136 1008.54 352.89 944.63 136 887.73 136 979.64 422.76 1034.55 422.76 1098.24 220.31 1160.81 422.76 1215.79 422.76 1304.64 136 1251.34 136 1187.99 349.82"/><path class="cls-3" d="M1470.64,23c-40.14,0-74.42,18-96,49.39-.86-13.3-2.25-27.78-4.23-40.6l-1.14-7.4L1329,26.31V312.68h51.87V156.61c0-35.28,26.88-87.46,84.58-87.46,41.14,0,66.7,26.65,66.7,69.57v174H1584v-174C1584,69.53,1538.44,23,1470.64,23Z" transform="translate(0 110.07)"/><g class="cls-4"><g class="cls-5"><path class="cls-6" d="M730.94-49.87c-110.56,0-200.19,92.05-200.19,205.61s89.63,205.6,200.19,205.6,200.2-92,200.2-205.6S841.51-49.87,730.94-49.87Zm0,321.64c-62.4,0-113-51.95-113-116s50.58-116,113-116,113,52,113,116S793.34,271.77,730.94,271.77Z" transform="translate(0 110.07)"/><path class="cls-7" d="M762.14,7.19c-98.66,0-178.63,82.14-178.63,183.45s80,183.45,178.63,183.45S940.76,292,940.76,190.64,860.79,7.19,762.14,7.19Zm0,287c-55.68,0-100.81-46.36-100.81-103.54S706.46,87.11,762.14,87.11s100.8,46.35,100.8,103.53S817.81,294.18,762.14,294.18Z" transform="translate(0 110.07)"/><path class="cls-8" d="M716,19C612.16,19,528,105.47,528,212.16S612.16,405.33,716,405.33s188.09-86.48,188.09-193.17S819.92,19,716,19Zm0,302.19c-58.62,0-106.15-48.81-106.15-109s47.53-109,106.15-109,106.15,48.81,106.15,109S774.67,321.18,716,321.18Z" transform="translate(0 110.07)"/><path class="cls-9" d="M678.33-2C564.43-2,472.09,92.78,472.09,209.77s92.34,211.82,206.24,211.82,206.25-94.83,206.25-211.82S792.24-2,678.33-2Zm0,331.36c-64.28,0-116.4-53.52-116.4-119.54S614.05,90.23,678.33,90.23s116.4,53.52,116.4,119.54S742.62,329.31,678.33,329.31Z" transform="translate(0 110.07)"/><path class="cls-10" d="M791.93-8.74C678-8.74,585.68,86.09,585.68,203.08S678,414.89,791.93,414.89s206.25-94.83,206.25-211.81S905.84-8.74,791.93-8.74Zm0,331.36c-64.29,0-116.4-53.52-116.4-119.54S727.64,83.53,791.93,83.53s116.4,53.52,116.4,119.55S856.21,322.62,791.93,322.62Z" transform="translate(0 110.07)"/><path class="cls-11" d="M697.88-102.46c-113.9,0-206.24,94.83-206.24,211.82S584,321.18,697.88,321.18s206.25-94.84,206.25-211.82S811.8-102.46,697.88-102.46Zm0,331.36c-64.28,0-116.39-53.52-116.39-119.54S633.6-10.18,697.88-10.18,814.29,43.34,814.29,109.36,762.17,228.9,697.88,228.9Z" transform="translate(0 110.07)"/><path class="cls-12" d="M721.28,98.57c-90.76,0-163.53,35.19-163.53,128.41s73.58,168.79,164.34,168.79S886.44,320.2,886.44,227,812.05,98.57,721.28,98.57Zm.81,223.67c-51.22,0-92.75-42.65-92.75-95.26s41.53-95.25,92.75-95.25,92.76,42.64,92.76,95.25S773.32,322.24,722.09,322.24Z" transform="translate(0 110.07)"/></g><g class="cls-13"><g class="cls-5"><path class="cls-14" d="M730.94-49.87c-110.56,0-200.19,92.05-200.19,205.61s89.63,205.6,200.19,205.6,200.2-92,200.2-205.6S841.51-49.87,730.94-49.87Zm0,321.64c-62.4,0-113-51.95-113-116s50.58-116,113-116,113,52,113,116S793.34,271.77,730.94,271.77Z" transform="translate(0 110.07)"/><path class="cls-15" d="M762.14,7.19c-98.66,0-178.63,82.14-178.63,183.45s80,183.45,178.63,183.45S940.76,292,940.76,190.64,860.79,7.19,762.14,7.19Zm0,287c-55.68,0-100.81-46.36-100.81-103.54S706.46,87.11,762.14,87.11s100.8,46.35,100.8,103.53S817.81,294.18,762.14,294.18Z" transform="translate(0 110.07)"/><path class="cls-16" d="M716,19C612.16,19,528,105.47,528,212.16S612.16,405.33,716,405.33s188.09-86.48,188.09-193.17S819.92,19,716,19Zm0,302.19c-58.62,0-106.15-48.81-106.15-109s47.53-109,106.15-109,106.15,48.81,106.15,109S774.67,321.18,716,321.18Z" transform="translate(0 110.07)"/><path class="cls-9" d="M678.33-2C564.43-2,472.09,92.78,472.09,209.77s92.34,211.82,206.24,211.82,206.25-94.83,206.25-211.82S792.24-2,678.33-2Zm0,331.36c-64.28,0-116.4-53.52-116.4-119.54S614.05,90.23,678.33,90.23s116.4,53.52,116.4,119.54S742.62,329.31,678.33,329.31Z" transform="translate(0 110.07)"/><path class="cls-10" d="M791.93-8.74C678-8.74,585.68,86.09,585.68,203.08S678,414.89,791.93,414.89s206.25-94.83,206.25-211.81S905.84-8.74,791.93-8.74Zm0,331.36c-64.29,0-116.4-53.52-116.4-119.54S727.64,83.53,791.93,83.53s116.4,53.52,116.4,119.55S856.21,322.62,791.93,322.62Z" transform="translate(0 110.07)"/><path class="cls-17" d="M698.73-102.46c-113.91-.48-206.62,94-207.09,211S583.13,320.7,697,321.18s206.62-94,207.09-211S812.64-102,698.73-102.46Zm-.85,331.36c-64.28,0-116.39-53.52-116.39-119.54S633.6-10.18,697.88-10.18,814.29,43.34,814.29,109.36,762.17,228.9,697.88,228.9Z" transform="translate(0 110.07)"/><path class="cls-12" d="M721.28,98.57c-90.76,0-163.53,35.19-163.53,128.41s73.58,168.79,164.34,168.79S886.44,320.2,886.44,227,812.05,98.57,721.28,98.57Zm.81,223.67c-51.22,0-92.75-42.65-92.75-95.26s41.53-95.25,92.75-95.25,92.76,42.64,92.76,95.25S773.32,322.24,722.09,322.24Z" transform="translate(0 110.07)"/></g></g><g class="cls-13"><g class="cls-5"><path class="cls-14" d="M730.94-49.87c-110.56,0-200.19,92.05-200.19,205.61s89.63,205.6,200.19,205.6,200.2-92,200.2-205.6S841.51-49.87,730.94-49.87Zm0,321.64c-62.4,0-113-51.95-113-116s50.58-116,113-116,113,52,113,116S793.34,271.77,730.94,271.77Z" transform="translate(0 110.07)"/><path class="cls-15" d="M762.14,7.19c-98.66,0-178.63,82.14-178.63,183.45s80,183.45,178.63,183.45S940.76,292,940.76,190.64,860.79,7.19,762.14,7.19Zm0,287c-55.68,0-100.81-46.36-100.81-103.54S706.46,87.11,762.14,87.11s100.8,46.35,100.8,103.53S817.81,294.18,762.14,294.18Z" transform="translate(0 110.07)"/><path class="cls-18" d="M716,19C612.16,19,528,105.47,528,212.16S612.16,405.33,716,405.33s188.09-86.48,188.09-193.17S819.92,19,716,19Zm0,302.19c-58.62,0-106.15-48.81-106.15-109s47.53-109,106.15-109,106.15,48.81,106.15,109S774.67,321.18,716,321.18Z" transform="translate(0 110.07)"/><path class="cls-9" d="M678.33-2C564.43-2,472.09,92.78,472.09,209.77s92.34,211.82,206.24,211.82,206.25-94.83,206.25-211.82S792.24-2,678.33-2Zm0,331.36c-64.28,0-116.4-53.52-116.4-119.54S614.05,90.23,678.33,90.23s116.4,53.52,116.4,119.54S742.62,329.31,678.33,329.31Z" transform="translate(0 110.07)"/><path class="cls-10" d="M791.93-8.74C678-8.74,585.68,86.09,585.68,203.08S678,414.89,791.93,414.89s206.25-94.83,206.25-211.81S905.84-8.74,791.93-8.74Zm0,331.36c-64.29,0-116.4-53.52-116.4-119.54S727.64,83.53,791.93,83.53s116.4,53.52,116.4,119.55S856.21,322.62,791.93,322.62Z" transform="translate(0 110.07)"/><path class="cls-11" d="M697.88-102.46c-113.9,0-206.24,94.83-206.24,211.82S584,321.18,697.88,321.18s206.25-94.84,206.25-211.82S811.8-102.46,697.88-102.46Zm0,331.36c-64.28,0-116.39-53.52-116.39-119.54S633.6-10.18,697.88-10.18,814.29,43.34,814.29,109.36,762.17,228.9,697.88,228.9Z" transform="translate(0 110.07)"/><path class="cls-12" d="M721.28,98.57c-90.76,0-163.53,35.19-163.53,128.41s73.58,168.79,164.34,168.79S886.44,320.2,886.44,227,812.05,98.57,721.28,98.57Zm.81,223.67c-51.22,0-92.75-42.65-92.75-95.26s41.53-95.25,92.75-95.25,92.76,42.64,92.76,95.25S773.32,322.24,722.09,322.24Z" transform="translate(0 110.07)"/></g></g><g class="cls-19"><path class="cls-20" d="M845.94,13.63c-60.21-78-157.84-78-218.05,0s-60.22,204.56,0,282.6,157.84,78,218.05,0S906.16,91.67,845.94,13.63ZM675.38,234.68c-34-44.05-34-115.45,0-159.49-8.63,11.19,129.54,8.39,123.06,0,34,44,34,115.44,0,159.49S709.37,278.72,675.38,234.68Z" transform="translate(0 110.07)"/><path class="cls-21" d="M832.67,74.86C779,5.23,691.84,5.23,638.11,74.86s-53.72,182.52,0,252.15S779,396.65,832.67,327,886.4,144.49,832.67,74.86ZM680.49,272.09c-30.32-39.3-30.32-103,0-142.31s79.48-39.29,109.81,0,30.32,103,0,142.31S710.81,311.39,680.49,272.09Z" transform="translate(0 110.07)"/><path class="cls-22" d="M801.32,50.43c-56.58-73.32-148.3-73.32-204.87,0s-56.58,192.2,0,265.52,148.29,73.32,204.87,0S857.89,123.75,801.32,50.43ZM641.07,258.11c-31.92-41.37-31.93-108.46,0-149.84-10.69,13.86,124.16,11.06,115.62,0,31.93,41.38,31.93,108.46,0,149.84S673,299.49,641.07,258.11Z" transform="translate(0 110.07)"/><path class="cls-23" d="M791.94,9.36c-62-80.4-162.62-80.4-224.65,0s-62,210.75,0,291.14,162.61,80.4,224.65,0S854,89.76,791.94,9.36ZM616.22,237.09c-35-45.38-35-118.94,0-164.32s91-5,126,40.38S778,191.71,743,237.09,651.23,282.46,616.22,237.09Z" transform="translate(0 110.07)"/><path class="cls-24" d="M857.35,84.94c-62-80.4-162.61-80.4-224.65,0s-62,210.75,0,291.14,162.62,80.41,224.65,0S919.39,165.34,857.35,84.94ZM681.64,312.67c-35-45.38-35-118.94,0-164.32s91.77-45.37,126.78,0,35,118.94,0,164.32S716.65,358,681.64,312.67Z" transform="translate(0 110.07)"/><path class="cls-25" d="M855.83-45.85c-62-80.4-162.61-80.4-224.65,0s-62,210.75,0,291.15,162.61,80.4,224.65,0S917.87,34.55,855.83-45.85ZM680.12,181.88c-35-45.37-35-118.94,0-164.31s91.77-45.38,126.78,0,35,118.94,0,164.31S715.12,227.25,680.12,181.88Z" transform="translate(0 110.07)"/><path class="cls-26" d="M783.82,81.65c-49.43-64.06-129.57-64.06-179,0s-49.44,167.94,0,232,129.58,64.07,179,0S833.25,145.72,783.82,81.65Zm-140,181.46c-27.89-36.15-27.89-94.77,0-130.93s73.13-36.15,101,0,27.9,94.78,0,130.94S671.7,299.27,643.8,263.11Z" transform="translate(0 110.07)"/></g><g class="cls-13"><g class="cls-19"><path class="cls-27" d="M845.94,13.63c-60.21-78-157.84-78-218.05,0s-60.22,204.56,0,282.6,157.84,78,218.05,0S906.16,91.67,845.94,13.63ZM675.38,234.68c-34-44.05-34-115.45,0-159.49-8.63,11.19,129.54,8.39,123.06,0,34,44,34,115.44,0,159.49S709.37,278.72,675.38,234.68Z" transform="translate(0 110.07)"/><path class="cls-28" d="M832.67,74.86C779,5.23,691.84,5.23,638.11,74.86s-53.72,182.52,0,252.15S779,396.65,832.67,327,886.4,144.49,832.67,74.86ZM680.49,272.09c-30.32-39.3-30.32-103,0-142.31s79.48-39.29,109.81,0,30.32,103,0,142.31S710.81,311.39,680.49,272.09Z" transform="translate(0 110.07)"/><path class="cls-29" d="M801.32,50.43c-56.58-73.32-148.3-73.32-204.87,0s-56.58,192.2,0,265.52,148.29,73.32,204.87,0S857.89,123.75,801.32,50.43ZM641.07,258.11c-31.92-41.37-31.93-108.46,0-149.84-10.69,13.86,124.16,11.06,115.62,0,31.93,41.38,31.93,108.46,0,149.84S673,299.49,641.07,258.11Z" transform="translate(0 110.07)"/><path class="cls-23" d="M791.94,9.36c-62-80.4-162.62-80.4-224.65,0s-62,210.75,0,291.14,162.61,80.4,224.65,0S854,89.76,791.94,9.36ZM616.22,237.09c-35-45.38-35-118.94,0-164.32s91-5,126,40.38S778,191.71,743,237.09,651.23,282.46,616.22,237.09Z" transform="translate(0 110.07)"/><path class="cls-24" d="M857.35,84.94c-62-80.4-162.61-80.4-224.65,0s-62,210.75,0,291.14,162.62,80.41,224.65,0S919.39,165.34,857.35,84.94ZM681.64,312.67c-35-45.38-35-118.94,0-164.32s91.77-45.37,126.78,0,35,118.94,0,164.32S716.65,358,681.64,312.67Z" transform="translate(0 110.07)"/><path class="cls-30" d="M856.29-45.25c-61.78-80.73-162.36-81.26-224.65-1.2S568.94,164,630.72,244.7,793.08,326,855.37,245.89,918.07,35.48,856.29-45.25ZM680.12,181.88c-35-45.37-35-118.94,0-164.31s91.77-45.38,126.78,0,35,118.94,0,164.31S715.12,227.25,680.12,181.88Z" transform="translate(0 110.07)"/><path class="cls-26" d="M783.82,81.65c-49.43-64.06-129.57-64.06-179,0s-49.44,167.94,0,232,129.58,64.07,179,0S833.25,145.72,783.82,81.65Zm-140,181.46c-27.89-36.15-27.89-94.77,0-130.93s73.13-36.15,101,0,27.9,94.78,0,130.94S671.7,299.27,643.8,263.11Z" transform="translate(0 110.07)"/></g></g><g class="cls-13"><g class="cls-19"><path class="cls-27" d="M845.94,13.63c-60.21-78-157.84-78-218.05,0s-60.22,204.56,0,282.6,157.84,78,218.05,0S906.16,91.67,845.94,13.63ZM675.38,234.68c-34-44.05-34-115.45,0-159.49-8.63,11.19,129.54,8.39,123.06,0,34,44,34,115.44,0,159.49S709.37,278.72,675.38,234.68Z" transform="translate(0 110.07)"/><path class="cls-28" d="M832.67,74.86C779,5.23,691.84,5.23,638.11,74.86s-53.72,182.52,0,252.15S779,396.65,832.67,327,886.4,144.49,832.67,74.86ZM680.49,272.09c-30.32-39.3-30.32-103,0-142.31s79.48-39.29,109.81,0,30.32,103,0,142.31S710.81,311.39,680.49,272.09Z" transform="translate(0 110.07)"/><path class="cls-31" d="M801.32,50.43c-56.58-73.32-148.3-73.32-204.87,0s-56.58,192.2,0,265.52,148.29,73.32,204.87,0S857.89,123.75,801.32,50.43ZM641.07,258.11c-31.92-41.37-31.93-108.46,0-149.84-10.69,13.86,124.16,11.06,115.62,0,31.93,41.38,31.93,108.46,0,149.84S673,299.49,641.07,258.11Z" transform="translate(0 110.07)"/><path class="cls-23" d="M791.94,9.36c-62-80.4-162.62-80.4-224.65,0s-62,210.75,0,291.14,162.61,80.4,224.65,0S854,89.76,791.94,9.36ZM616.22,237.09c-35-45.38-35-118.94,0-164.32s91-5,126,40.38S778,191.71,743,237.09,651.23,282.46,616.22,237.09Z" transform="translate(0 110.07)"/><path class="cls-24" d="M857.35,84.94c-62-80.4-162.61-80.4-224.65,0s-62,210.75,0,291.14,162.62,80.41,224.65,0S919.39,165.34,857.35,84.94ZM681.64,312.67c-35-45.38-35-118.94,0-164.32s91.77-45.37,126.78,0,35,118.94,0,164.32S716.65,358,681.64,312.67Z" transform="translate(0 110.07)"/><path class="cls-25" d="M855.83-45.85c-62-80.4-162.61-80.4-224.65,0s-62,210.75,0,291.15,162.61,80.4,224.65,0S917.87,34.55,855.83-45.85ZM680.12,181.88c-35-45.37-35-118.94,0-164.31s91.77-45.38,126.78,0,35,118.94,0,164.31S715.12,227.25,680.12,181.88Z" transform="translate(0 110.07)"/><path class="cls-26" d="M783.82,81.65c-49.43-64.06-129.57-64.06-179,0s-49.44,167.94,0,232,129.58,64.07,179,0S833.25,145.72,783.82,81.65Zm-140,181.46c-27.89-36.15-27.89-94.77,0-130.93s73.13-36.15,101,0,27.9,94.78,0,130.94S671.7,299.27,643.8,263.11Z" transform="translate(0 110.07)"/></g></g><path class="cls-1" d="M732-17.16c-108.25,0-181,74.79-181,186.1,0,110.45,72.72,184.64,181,184.64s181-74.19,181-184.64C913,57.63,840.24-17.16,732-17.16Zm114.51,186.1c0,75.49-46,126.21-114.51,126.21-68.93,0-115.24-50.72-115.24-126.21,0-76.36,46.31-127.67,115.24-127.67C800.49,41.27,846.51,92.58,846.51,168.94Z" transform="translate(0 110.07)"/><path class="cls-3" d="M874.11,206.12a146.26,146.26,0,0,0-67.4-152.38,13.7,13.7,0,1,0-14.38,23.32,119,119,0,0,1,57,101.9,116.84,116.84,0,0,1-1.47,18.28H847a45.68,45.68,0,1,0,27.08,8.89ZM847,261.18a18.28,18.28,0,1,1,18.28-18.28A18.3,18.3,0,0,1,847,261.18Z" transform="translate(0 110.07)"/><path class="cls-3" d="M775.46,289.42h0a118.82,118.82,0,0,1-45.68,9.07,120.44,120.44,0,0,1-79.3-30.2,45.74,45.74,0,1,0-21.7,17.3,147.81,147.81,0,0,0,101,40.3,146.16,146.16,0,0,0,56.14-11.11,13.58,13.58,0,0,0,7.46-7.44,13.71,13.71,0,0,0-17.89-17.93Zm-163-64.79a18.28,18.28,0,1,1-18.28,18.28A18.3,18.3,0,0,1,612.51,224.63Z" transform="translate(0 110.07)"/></g><g class="cls-32"><g class="cls-33"><path class="cls-34" d="M718.44-51.19C608.05-45.06,523.67,51.83,530,165.21s100.9,200.31,211.3,194.17S936,256.36,929.74,143,828.84-57.33,718.44-51.19ZM736.3,270c-62.31,3.46-115.69-45.6-119.25-109.59S661.11,41.7,723.41,38.24,839.1,83.84,842.66,147.82,798.6,266.48,736.3,270Z" transform="translate(0 110.07)"/><path class="cls-35" d="M752.76,4C654.26,9.52,579,96,584.59,197.13s90,178.73,188.53,173.25S946.91,278.46,941.29,177.3,851.25-1.43,752.76,4Zm15.93,286.55c-55.59,3.09-103.23-40.69-106.4-97.78s39.31-105.88,94.9-109,103.23,40.69,106.4,97.78S824.27,287.5,768.69,290.59Z" transform="translate(0 110.07)"/><path class="cls-36" d="M707.39,18.38c-103.72,5.77-183,96.79-177.08,203.32s94.8,188.2,198.52,182.43,183-96.79,177.08-203.32S811.11,12.61,707.39,18.38ZM724.16,320.1c-58.53,3.26-108.69-42.84-112-103s41.41-111.49,99.94-114.75,108.69,42.85,112,103S782.7,316.85,724.16,320.1Z" transform="translate(0 110.07)"/><path class="cls-37" d="M668.57-.53C554.84,5.79,467.9,105.6,474.4,222.41s104,206.37,217.68,200S892.75,316.32,886.25,199.51,782.3-6.86,668.57-.53ZM687,330.32c-64.18,3.57-119.19-47-122.86-112.9S609.51,95.17,673.69,91.6s119.19,47,122.85,112.9S751.15,326.75,687,330.32Z" transform="translate(0 110.07)"/><path class="cls-38" d="M781.62-13.52C667.89-7.2,581,92.61,587.45,209.42s104,206.37,217.68,200S1005.8,303.33,999.31,186.52,895.36-19.84,781.62-13.52ZM800,317.33c-64.18,3.57-119.19-47-122.85-112.9S722.56,82.18,786.74,78.61s119.19,47,122.86,112.9S864.2,313.76,800,317.33Z" transform="translate(0 110.07)"/><path class="cls-39" d="M682.52-101.88c-113.73,6.33-200.67,106.14-194.17,223S592.3,327.44,706,321.11,906.7,215,900.2,98.17,796.25-108.2,682.52-101.88ZM700.91,229c-64.19,3.57-119.19-47-122.85-112.9S623.45-6.17,687.64-9.74s119.19,47,122.86,112.9S765.1,225.41,700.91,229Z" transform="translate(0 110.07)"/><path class="cls-40" d="M717,97.55c-90.62,5-161.33,44.22-156.15,137.29s82.83,164.44,173.46,159.41,159.9-84.58,154.72-177.65S807.67,92.51,717,97.55Zm13.22,223.28c-51.14,2.84-95-37.43-97.89-90s36.17-97.42,87.32-100.26,95,37.43,97.9,90S781.41,318,730.26,320.83Z" transform="translate(0 110.07)"/></g><g class="cls-13"><g class="cls-33"><path class="cls-41" d="M718.44-51.19C608.05-45.06,523.67,51.83,530,165.21s100.9,200.31,211.3,194.17S936,256.36,929.74,143,828.84-57.33,718.44-51.19ZM736.3,270c-62.31,3.46-115.69-45.6-119.25-109.59S661.11,41.7,723.41,38.24,839.1,83.84,842.66,147.82,798.6,266.48,736.3,270Z" transform="translate(0 110.07)"/><path class="cls-42" d="M752.76,4C654.26,9.52,579,96,584.59,197.13s90,178.73,188.53,173.25S946.91,278.46,941.29,177.3,851.25-1.43,752.76,4Zm15.93,286.55c-55.59,3.09-103.23-40.69-106.4-97.78s39.31-105.88,94.9-109,103.23,40.69,106.4,97.78S824.27,287.5,768.69,290.59Z" transform="translate(0 110.07)"/><path class="cls-43" d="M707.39,18.38c-103.72,5.77-183,96.79-177.08,203.32s94.8,188.2,198.52,182.43,183-96.79,177.08-203.32S811.11,12.61,707.39,18.38ZM724.16,320.1c-58.53,3.26-108.69-42.84-112-103s41.41-111.49,99.94-114.75,108.69,42.85,112,103S782.7,316.85,724.16,320.1Z" transform="translate(0 110.07)"/><path class="cls-37" d="M668.57-.53C554.84,5.79,467.9,105.6,474.4,222.41s104,206.37,217.68,200S892.75,316.32,886.25,199.51,782.3-6.86,668.57-.53ZM687,330.32c-64.18,3.57-119.19-47-122.86-112.9S609.51,95.17,673.69,91.6s119.19,47,122.85,112.9S751.15,326.75,687,330.32Z" transform="translate(0 110.07)"/><path class="cls-38" d="M781.62-13.52C667.89-7.2,581,92.61,587.45,209.42s104,206.37,217.68,200S1005.8,303.33,999.31,186.52,895.36-19.84,781.62-13.52ZM800,317.33c-64.18,3.57-119.19-47-122.85-112.9S722.56,82.18,786.74,78.61s119.19,47,122.86,112.9S864.2,313.76,800,317.33Z" transform="translate(0 110.07)"/><path class="cls-44" d="M683.36-101.92C569.6-96.08,482.27,3.37,488.3,120.2s103.13,206.8,216.89,201S906.28,215.87,900.25,99,797.12-107.76,683.36-101.92ZM700.91,229c-64.19,3.57-119.19-47-122.85-112.9S623.45-6.17,687.64-9.74s119.19,47,122.86,112.9S765.1,225.41,700.91,229Z" transform="translate(0 110.07)"/><path class="cls-40" d="M717,97.55c-90.62,5-161.33,44.22-156.15,137.29s82.83,164.44,173.46,159.41,159.9-84.58,154.72-177.65S807.67,92.51,717,97.55Zm13.22,223.28c-51.14,2.84-95-37.43-97.89-90s36.17-97.42,87.32-100.26,95,37.43,97.9,90S781.41,318,730.26,320.83Z" transform="translate(0 110.07)"/></g></g><g class="cls-13"><g class="cls-33"><path class="cls-41" d="M718.44-51.19C608.05-45.06,523.67,51.83,530,165.21s100.9,200.31,211.3,194.17S936,256.36,929.74,143,828.84-57.33,718.44-51.19ZM736.3,270c-62.31,3.46-115.69-45.6-119.25-109.59S661.11,41.7,723.41,38.24,839.1,83.84,842.66,147.82,798.6,266.48,736.3,270Z" transform="translate(0 110.07)"/><path class="cls-42" d="M752.76,4C654.26,9.52,579,96,584.59,197.13s90,178.73,188.53,173.25S946.91,278.46,941.29,177.3,851.25-1.43,752.76,4Zm15.93,286.55c-55.59,3.09-103.23-40.69-106.4-97.78s39.31-105.88,94.9-109,103.23,40.69,106.4,97.78S824.27,287.5,768.69,290.59Z" transform="translate(0 110.07)"/><path class="cls-45" d="M707.39,18.38c-103.72,5.77-183,96.79-177.08,203.32s94.8,188.2,198.52,182.43,183-96.79,177.08-203.32S811.11,12.61,707.39,18.38ZM724.16,320.1c-58.53,3.26-108.69-42.84-112-103s41.41-111.49,99.94-114.75,108.69,42.85,112,103S782.7,316.85,724.16,320.1Z" transform="translate(0 110.07)"/><path class="cls-37" d="M668.57-.53C554.84,5.79,467.9,105.6,474.4,222.41s104,206.37,217.68,200S892.75,316.32,886.25,199.51,782.3-6.86,668.57-.53ZM687,330.32c-64.18,3.57-119.19-47-122.86-112.9S609.51,95.17,673.69,91.6s119.19,47,122.85,112.9S751.15,326.75,687,330.32Z" transform="translate(0 110.07)"/><path class="cls-38" d="M781.62-13.52C667.89-7.2,581,92.61,587.45,209.42s104,206.37,217.68,200S1005.8,303.33,999.31,186.52,895.36-19.84,781.62-13.52ZM800,317.33c-64.18,3.57-119.19-47-122.85-112.9S722.56,82.18,786.74,78.61s119.19,47,122.86,112.9S864.2,313.76,800,317.33Z" transform="translate(0 110.07)"/><path class="cls-39" d="M682.52-101.88c-113.73,6.33-200.67,106.14-194.17,223S592.3,327.44,706,321.11,906.7,215,900.2,98.17,796.25-108.2,682.52-101.88ZM700.91,229c-64.19,3.57-119.19-47-122.85-112.9S623.45-6.17,687.64-9.74s119.19,47,122.86,112.9S765.1,225.41,700.91,229Z" transform="translate(0 110.07)"/><path class="cls-40" d="M717,97.55c-90.62,5-161.33,44.22-156.15,137.29s82.83,164.44,173.46,159.41,159.9-84.58,154.72-177.65S807.67,92.51,717,97.55Zm13.22,223.28c-51.14,2.84-95-37.43-97.89-90s36.17-97.42,87.32-100.26,95,37.43,97.9,90S781.41,318,730.26,320.83Z" transform="translate(0 110.07)"/></g></g><g class="cls-46"><path class="cls-47" d="M836.79,5.82c-64.45-74.58-161.93-69.16-217.72,12.1s-48.77,207.6,15.69,282.17S796.69,369.25,852.48,288,901.24,80.39,836.79,5.82ZM678.77,236c-36.38-42.09-40.34-113.38-8.86-159.24-8,11.66,129.81,1.19,122.87-6.83,36.38,42.09,40.34,113.38,8.86,159.24S715.14,278.08,678.77,236Z" transform="translate(0 110.07)"/><path class="cls-48" d="M826.94,67.69C769.43,1.15,682.46,6,632.68,78.49s-43.51,185.23,14,251.77S791.16,392,840.94,319.46,884.45,134.23,826.94,67.69Zm-141,205.38C653.49,235.51,650,171.9,678,131s77.18-43.65,109.64-6.1,36,101.17,7.89,142.09S718.4,310.62,685.94,273.07Z" transform="translate(0 110.07)"/><path class="cls-49" d="M794.28,45C733.72-25,642.14-19.93,589.72,56.42s-45.82,195,14.74,265.1S756.6,386.5,809,310.15,854.83,115.11,794.28,45ZM645.81,261.3c-34.18-39.54-37.9-106.53-8.32-149.62-9.91,14.43,124.57,4.16,115.44-6.41,34.18,39.54,37.9,106.52,8.32,149.61S680,300.84,645.81,261.3Z" transform="translate(0 110.07)"/><path class="cls-50" d="M782.63,4.55C716.23-72.28,615.81-66.7,558.33,17s-50.24,213.87,16.16,290.7S741.31,379,798.79,295.25,849,81.38,782.63,4.55ZM619.83,241.68c-37.48-43.36-41.57-116.81-9.13-164.06s90.55-10,128,33.33,40.12,76.45,7.68,123.7S657.3,285,619.83,241.68Z" transform="translate(0 110.07)"/><path class="cls-51" d="M852.14,76.38C785.74-.44,685.32,5.13,627.84,88.85S577.6,302.72,644,379.55s166.83,71.25,224.3-12.46S918.54,153.22,852.14,76.38ZM689.34,313.52c-37.48-43.36-41.56-116.81-9.12-164.06s89.11-50.4,126.58-7,41.56,116.81,9.13,164.06S726.81,356.88,689.34,313.52Z" transform="translate(0 110.07)"/><path class="cls-52" d="M843.36-54.12c-66.4-76.83-166.82-71.25-224.3,12.47s-50.24,213.87,16.16,290.7S802,320.3,859.52,236.58,909.77,22.72,843.36-54.12ZM680.56,183C643.08,139.65,639,66.21,671.44,19s89.11-50.4,126.58-7S839.58,128.73,807.15,176,718,226.38,680.56,183Z" transform="translate(0 110.07)"/><path class="cls-53" d="M778.54,77.18C725.63,16,645.61,20.41,599.81,87.12s-40,170.42,12.88,231.64,132.93,56.78,178.73-9.93S831.45,138.41,778.54,77.18Zm-129.73,189c-29.86-34.55-33.11-93.08-7.27-130.73s71-40.16,100.87-5.61,33.12,93.09,7.27,130.73S678.67,300.69,648.81,266.14Z" transform="translate(0 110.07)"/></g><g class="cls-13"><g class="cls-46"><path class="cls-54" d="M836.79,5.82c-64.45-74.58-161.93-69.16-217.72,12.1s-48.77,207.6,15.69,282.17S796.69,369.25,852.48,288,901.24,80.39,836.79,5.82ZM678.77,236c-36.38-42.09-40.34-113.38-8.86-159.24-8,11.66,129.81,1.19,122.87-6.83,36.38,42.09,40.34,113.38,8.86,159.24S715.14,278.08,678.77,236Z" transform="translate(0 110.07)"/><path class="cls-55" d="M826.94,67.69C769.43,1.15,682.46,6,632.68,78.49s-43.51,185.23,14,251.77S791.16,392,840.94,319.46,884.45,134.23,826.94,67.69Zm-141,205.38C653.49,235.51,650,171.9,678,131s77.18-43.65,109.64-6.1,36,101.17,7.89,142.09S718.4,310.62,685.94,273.07Z" transform="translate(0 110.07)"/><path class="cls-56" d="M794.28,45C733.72-25,642.14-19.93,589.72,56.42s-45.82,195,14.74,265.1S756.6,386.5,809,310.15,854.83,115.11,794.28,45ZM645.81,261.3c-34.18-39.54-37.9-106.53-8.32-149.62-9.91,14.43,124.57,4.16,115.44-6.41,34.18,39.54,37.9,106.52,8.32,149.61S680,300.84,645.81,261.3Z" transform="translate(0 110.07)"/><path class="cls-50" d="M782.63,4.55C716.23-72.28,615.81-66.7,558.33,17s-50.24,213.87,16.16,290.7S741.31,379,798.79,295.25,849,81.38,782.63,4.55ZM619.83,241.68c-37.48-43.36-41.57-116.81-9.13-164.06s90.55-10,128,33.33,40.12,76.45,7.68,123.7S657.3,285,619.83,241.68Z" transform="translate(0 110.07)"/><path class="cls-51" d="M852.14,76.38C785.74-.44,685.32,5.13,627.84,88.85S577.6,302.72,644,379.55s166.83,71.25,224.3-12.46S918.54,153.22,852.14,76.38ZM689.34,313.52c-37.48-43.36-41.56-116.81-9.12-164.06s89.11-50.4,126.58-7,41.56,116.81,9.13,164.06S726.81,356.88,689.34,313.52Z" transform="translate(0 110.07)"/><path class="cls-57" d="M843.85-53.55c-66.16-77.17-166.61-72.12-224.36,11.28s-50.93,213.58,15.24,290.75S801.35,320.6,859.09,237.2,910,23.63,843.85-53.55ZM680.56,183C643.08,139.65,639,66.21,671.44,19s89.11-50.4,126.58-7S839.58,128.73,807.15,176,718,226.38,680.56,183Z" transform="translate(0 110.07)"/><path class="cls-53" d="M778.54,77.18C725.63,16,645.61,20.41,599.81,87.12s-40,170.42,12.88,231.64,132.93,56.78,178.73-9.93S831.45,138.41,778.54,77.18Zm-129.73,189c-29.86-34.55-33.11-93.08-7.27-130.73s71-40.16,100.87-5.61,33.12,93.09,7.27,130.73S678.67,300.69,648.81,266.14Z" transform="translate(0 110.07)"/></g></g><g class="cls-13"><g class="cls-46"><path class="cls-54" d="M836.79,5.82c-64.45-74.58-161.93-69.16-217.72,12.1s-48.77,207.6,15.69,282.17S796.69,369.25,852.48,288,901.24,80.39,836.79,5.82ZM678.77,236c-36.38-42.09-40.34-113.38-8.86-159.24-8,11.66,129.81,1.19,122.87-6.83,36.38,42.09,40.34,113.38,8.86,159.24S715.14,278.08,678.77,236Z" transform="translate(0 110.07)"/><path class="cls-55" d="M826.94,67.69C769.43,1.15,682.46,6,632.68,78.49s-43.51,185.23,14,251.77S791.16,392,840.94,319.46,884.45,134.23,826.94,67.69Zm-141,205.38C653.49,235.51,650,171.9,678,131s77.18-43.65,109.64-6.1,36,101.17,7.89,142.09S718.4,310.62,685.94,273.07Z" transform="translate(0 110.07)"/><path class="cls-58" d="M794.28,45C733.72-25,642.14-19.93,589.72,56.42s-45.82,195,14.74,265.1S756.6,386.5,809,310.15,854.83,115.11,794.28,45ZM645.81,261.3c-34.18-39.54-37.9-106.53-8.32-149.62-9.91,14.43,124.57,4.16,115.44-6.41,34.18,39.54,37.9,106.52,8.32,149.61S680,300.84,645.81,261.3Z" transform="translate(0 110.07)"/><path class="cls-50" d="M782.63,4.55C716.23-72.28,615.81-66.7,558.33,17s-50.24,213.87,16.16,290.7S741.31,379,798.79,295.25,849,81.38,782.63,4.55ZM619.83,241.68c-37.48-43.36-41.57-116.81-9.13-164.06s90.55-10,128,33.33,40.12,76.45,7.68,123.7S657.3,285,619.83,241.68Z" transform="translate(0 110.07)"/><path class="cls-51" d="M852.14,76.38C785.74-.44,685.32,5.13,627.84,88.85S577.6,302.72,644,379.55s166.83,71.25,224.3-12.46S918.54,153.22,852.14,76.38ZM689.34,313.52c-37.48-43.36-41.56-116.81-9.12-164.06s89.11-50.4,126.58-7,41.56,116.81,9.13,164.06S726.81,356.88,689.34,313.52Z" transform="translate(0 110.07)"/><path class="cls-52" d="M843.36-54.12c-66.4-76.83-166.82-71.25-224.3,12.47s-50.24,213.87,16.16,290.7S802,320.3,859.52,236.58,909.77,22.72,843.36-54.12ZM680.56,183C643.08,139.65,639,66.21,671.44,19s89.11-50.4,126.58-7S839.58,128.73,807.15,176,718,226.38,680.56,183Z" transform="translate(0 110.07)"/><path class="cls-53" d="M778.54,77.18C725.63,16,645.61,20.41,599.81,87.12s-40,170.42,12.88,231.64,132.93,56.78,178.73-9.93S831.45,138.41,778.54,77.18Zm-129.73,189c-29.86-34.55-33.11-93.08-7.27-130.73s71-40.16,100.87-5.61,33.12,93.09,7.27,130.73S678.67,300.69,648.81,266.14Z" transform="translate(0 110.07)"/></g></g><path class="cls-1" d="M721.31-18.6C613.23-12.59,544.78,66.13,551,177.26c6.13,110.28,82.86,180.32,190.94,174.31s176.59-84.13,170.46-194.4C906.17,46,829.39-24.61,721.31-18.6ZM846,160.86c4.19,75.37-39,128.57-107.33,132.37C669.83,297.05,620.77,249,616.58,173.61c-4.24-76.24,39.16-130,108-133.86C792.94,35.94,841.74,84.62,846,160.86Z" transform="translate(0 110.07)"/><path class="cls-3" d="M875.6,196.45A146.26,146.26,0,0,0,799.85,48a13.7,13.7,0,1,0-13.07,24.09,119,119,0,0,1,62.54,98.58,117.68,117.68,0,0,1-.45,18.33l-.8,0a45.66,45.66,0,1,0,27.53,7.37Zm-24,56.48a18.28,18.28,0,1,1,17.23-19.27A18.3,18.3,0,0,1,851.62,252.93Z" transform="translate(0 110.07)"/></g><g class="cls-59"><g class="cls-60"><path class="cls-61" d="M745-54.31C634.54-59.59,540.61,28.07,535.19,141.5S614.9,351.15,725.34,356.43,929.7,274,935.12,160.62,855.41-49,745-54.31ZM729.61,267c-62.32-3-110.37-57.29-107.31-121.3S678.37,32.18,740.7,35.16,851.07,92.44,848,156.45,791.94,269.94,729.61,267Z" transform="translate(0 110.07)"/><path class="cls-62" d="M773.41,4.17C674.87-.54,591.06,77.68,586.22,178.88s71.13,187.06,169.67,191.77,182.34-73.5,187.18-174.71S872,8.88,773.41,4.17ZM759.7,290.83c-55.61-2.66-98.48-51.12-95.75-108.23S714,81.34,769.59,84s98.48,51.11,95.75,108.23S815.31,293.49,759.7,290.83Z" transform="translate(0 110.07)"/><path class="cls-63" d="M726.8,13.75c-103.76-5-192,77.4-197.1,184s74.89,197,178.65,201.94,192-77.41,197.1-184S830.56,18.71,726.8,13.75ZM712.37,315.6c-58.55-2.8-103.7-53.83-100.82-114S664.23,95,722.78,97.81s103.7,53.82,100.83,114S770.93,318.4,712.37,315.6Z" transform="translate(0 110.07)"/><path class="cls-64" d="M690.14-9.06C576.36-14.5,479.6,75.81,474,192.66s82.12,216,195.9,221.43S880.45,329.22,886,212.36,803.92-3.62,690.14-9.06Zm-15.82,331c-64.21-3.07-113.72-59-110.56-125S621.52,80,685.73,83.11s113.71,59,110.56,125S738.53,325,674.32,321.92Z" transform="translate(0 110.07)"/><path class="cls-65" d="M803.93-10.33C690.16-15.77,593.39,74.55,587.8,191.4s82.13,216,195.9,221.43S994.24,328,999.83,211.1,917.71-4.89,803.93-10.33Zm-15.83,331c-64.21-3.07-113.7-59-110.55-125s57.76-116.91,122-113.84,113.71,59,110.56,125S852.31,323.73,788.1,320.66Z" transform="translate(0 110.07)"/><path class="cls-66" d="M714.47-108.43C600.69-113.87,503.93-23.55,498.34,93.3s82.12,216,195.89,221.43S904.77,229.85,910.36,113,828.25-103,714.47-108.43Zm-15.83,331c-64.21-3.07-113.71-59-110.55-125s57.76-116.91,122-113.84,113.71,59,110.56,125S762.85,225.63,698.64,222.56Z" transform="translate(0 110.07)"/><path class="cls-67" d="M728.24,93.5c-90.66-4.34-165,27.34-169.48,120.45s65.43,172.11,156.09,176.44,167.77-67.63,172.23-160.74S818.9,97.83,728.24,93.5ZM718.37,317c-51.17-2.45-90.61-47-88.1-99.58s46-93.17,97.19-90.72,90.61,47,88.1,99.58S769.53,319.39,718.37,317Z" transform="translate(0 110.07)"/></g><g class="cls-13"><g class="cls-60"><path class="cls-68" d="M745-54.31C634.54-59.59,540.61,28.07,535.19,141.5S614.9,351.15,725.34,356.43,929.7,274,935.12,160.62,855.41-49,745-54.31ZM729.61,267c-62.32-3-110.37-57.29-107.31-121.3S678.37,32.18,740.7,35.16,851.07,92.44,848,156.45,791.94,269.94,729.61,267Z" transform="translate(0 110.07)"/><path class="cls-69" d="M773.41,4.17C674.87-.54,591.06,77.68,586.22,178.88s71.13,187.06,169.67,191.77,182.34-73.5,187.18-174.71S872,8.88,773.41,4.17ZM759.7,290.83c-55.61-2.66-98.48-51.12-95.75-108.23S714,81.34,769.59,84s98.48,51.11,95.75,108.23S815.31,293.49,759.7,290.83Z" transform="translate(0 110.07)"/><path class="cls-70" d="M726.8,13.75c-103.76-5-192,77.4-197.1,184s74.89,197,178.65,201.94,192-77.41,197.1-184S830.56,18.71,726.8,13.75ZM712.37,315.6c-58.55-2.8-103.7-53.83-100.82-114S664.23,95,722.78,97.81s103.7,53.82,100.83,114S770.93,318.4,712.37,315.6Z" transform="translate(0 110.07)"/><path class="cls-64" d="M690.14-9.06C576.36-14.5,479.6,75.81,474,192.66s82.12,216,195.9,221.43S880.45,329.22,886,212.36,803.92-3.62,690.14-9.06Zm-15.82,331c-64.21-3.07-113.72-59-110.56-125S621.52,80,685.73,83.11s113.71,59,110.56,125S738.53,325,674.32,321.92Z" transform="translate(0 110.07)"/><path class="cls-65" d="M803.93-10.33C690.16-15.77,593.39,74.55,587.8,191.4s82.13,216,195.9,221.43S994.24,328,999.83,211.1,917.71-4.89,803.93-10.33Zm-15.83,331c-64.21-3.07-113.7-59-110.55-125s57.76-116.91,122-113.84,113.71,59,110.56,125S852.31,323.73,788.1,320.66Z" transform="translate(0 110.07)"/><path class="cls-71" d="M715.31-108.39c-113.75-5.91-210.87,84-216.93,200.82s81.26,216.34,195,222.26,210.88-84,216.93-200.82S829.07-102.47,715.31-108.39Zm-16.67,331c-64.21-3.07-113.71-59-110.55-125s57.76-116.91,122-113.84,113.71,59,110.56,125S762.85,225.63,698.64,222.56Z" transform="translate(0 110.07)"/><path class="cls-67" d="M728.24,93.5c-90.66-4.34-165,27.34-169.48,120.45s65.43,172.11,156.09,176.44,167.77-67.63,172.23-160.74S818.9,97.83,728.24,93.5ZM718.37,317c-51.17-2.45-90.61-47-88.1-99.58s46-93.17,97.19-90.72,90.61,47,88.1,99.58S769.53,319.39,718.37,317Z" transform="translate(0 110.07)"/></g></g><g class="cls-13"><g class="cls-60"><path class="cls-68" d="M745-54.31C634.54-59.59,540.61,28.07,535.19,141.5S614.9,351.15,725.34,356.43,929.7,274,935.12,160.62,855.41-49,745-54.31ZM729.61,267c-62.32-3-110.37-57.29-107.31-121.3S678.37,32.18,740.7,35.16,851.07,92.44,848,156.45,791.94,269.94,729.61,267Z" transform="translate(0 110.07)"/><path class="cls-69" d="M773.41,4.17C674.87-.54,591.06,77.68,586.22,178.88s71.13,187.06,169.67,191.77,182.34-73.5,187.18-174.71S872,8.88,773.41,4.17ZM759.7,290.83c-55.61-2.66-98.48-51.12-95.75-108.23S714,81.34,769.59,84s98.48,51.11,95.75,108.23S815.31,293.49,759.7,290.83Z" transform="translate(0 110.07)"/><path class="cls-72" d="M726.8,13.75c-103.76-5-192,77.4-197.1,184s74.89,197,178.65,201.94,192-77.41,197.1-184S830.56,18.71,726.8,13.75ZM712.37,315.6c-58.55-2.8-103.7-53.83-100.82-114S664.23,95,722.78,97.81s103.7,53.82,100.83,114S770.93,318.4,712.37,315.6Z" transform="translate(0 110.07)"/><path class="cls-64" d="M690.14-9.06C576.36-14.5,479.6,75.81,474,192.66s82.12,216,195.9,221.43S880.45,329.22,886,212.36,803.92-3.62,690.14-9.06Zm-15.82,331c-64.21-3.07-113.72-59-110.56-125S621.52,80,685.73,83.11s113.71,59,110.56,125S738.53,325,674.32,321.92Z" transform="translate(0 110.07)"/><path class="cls-65" d="M803.93-10.33C690.16-15.77,593.39,74.55,587.8,191.4s82.13,216,195.9,221.43S994.24,328,999.83,211.1,917.71-4.89,803.93-10.33Zm-15.83,331c-64.21-3.07-113.7-59-110.55-125s57.76-116.91,122-113.84,113.71,59,110.56,125S852.31,323.73,788.1,320.66Z" transform="translate(0 110.07)"/><path class="cls-66" d="M714.47-108.43C600.69-113.87,503.93-23.55,498.34,93.3s82.12,216,195.89,221.43S904.77,229.85,910.36,113,828.25-103,714.47-108.43Zm-15.83,331c-64.21-3.07-113.71-59-110.55-125s57.76-116.91,122-113.84,113.71,59,110.56,125S762.85,225.63,698.64,222.56Z" transform="translate(0 110.07)"/><path class="cls-67" d="M728.24,93.5c-90.66-4.34-165,27.34-169.48,120.45s65.43,172.11,156.09,176.44,167.77-67.63,172.23-160.74S818.9,97.83,728.24,93.5ZM718.37,317c-51.17-2.45-90.61-47-88.1-99.58s46-93.17,97.19-90.72,90.61,47,88.1,99.58S769.53,319.39,718.37,317Z" transform="translate(0 110.07)"/></g></g><g class="cls-73"><path class="cls-74" d="M856.81,14.6C800.39-66.22,702.88-70.89,639,4.19s-69.91,201.45-13.49,282.28S779.44,372,843.31,296.88,913.23,95.43,856.81,14.6ZM675.89,227.25c-31.84-45.61-28.43-116.94,7.62-159.31-9.17,10.77,129,14.57,122.92,5.88,31.84,45.62,28.43,116.94-7.62,159.31S707.73,272.87,675.89,227.25Z" transform="translate(0 110.07)"/><path class="cls-75" d="M840.63,75.13C790.29,3,703.28-1.15,646.29,65.84s-62.38,179.75-12,251.86S771.6,394,828.59,327,891,147.25,840.63,75.13ZM679.21,264.87c-28.41-40.7-25.37-104.34,6.79-142.15S767.27,87.27,795.68,128s25.37,104.34-6.8,142.14S707.62,305.57,679.21,264.87Z" transform="translate(0 110.07)"/><path class="cls-76" d="M810.48,49.23c-53-75.94-144.63-80.32-204.64-9.78s-65.69,189.27-12.68,265.21S737.79,385,797.8,314.44,863.49,125.17,810.48,49.23ZM640.5,249c-29.92-42.85-26.71-109.86,7.15-149.67-11.34,13.33,123.49,17,115.49,5.52,29.92,42.86,26.71,109.87-7.16,149.67S670.41,291.88,640.5,249Z" transform="translate(0 110.07)"/><path class="cls-77" d="M803.07,7.76C745-75.51,644.48-80.32,578.68-3s-72,207.54-13.91,290.81,158.59,88.08,224.4,10.73S861.19,91,803.07,7.76ZM616.68,226.83c-32.8-47-29.29-120.47,7.84-164.12s91.1-.65,123.91,46.35,32,80.18-5.11,123.83S649.48,273.83,616.68,226.83Z" transform="translate(0 110.07)"/><path class="cls-78" d="M864.8,86.37C806.68,3.11,706.21-1.7,640.41,75.64s-72,207.55-13.9,290.82S785.1,454.54,850.9,377.19,922.93,169.65,864.8,86.37ZM678.41,305.45c-32.8-47-29.29-120.47,7.85-164.12s93.83-40.94,126.64,6,29.29,120.48-7.85,164.13S711.21,352.44,678.41,305.45Z" transform="translate(0 110.07)"/><path class="cls-79" d="M869.53-44.34c-58.13-83.27-158.59-88.07-224.39-10.73s-72,207.55-13.91,290.82,158.59,88.07,224.39,10.73S927.65,38.93,869.53-44.34ZM683.14,174.74c-32.81-47-29.29-120.47,7.85-164.12s93.83-40.94,126.63,6.05,29.29,120.48-7.84,164.13S715.94,221.73,683.14,174.74Z" transform="translate(0 110.07)"/><path class="cls-80" d="M791.51,79.58C745.2,13.23,665.14,9.4,612.71,71s-57.4,165.38-11.08,231.73S728,373,780.43,311.31,837.83,145.93,791.51,79.58ZM643,254.15c-26.14-37.45-23.34-96,6.25-130.78S724,90.75,750.15,128.19s23.34,96-6.25,130.78S669.13,291.6,643,254.15Z" transform="translate(0 110.07)"/></g><g class="cls-13"><g class="cls-73"><path class="cls-81" d="M856.81,14.6C800.39-66.22,702.88-70.89,639,4.19s-69.91,201.45-13.49,282.28S779.44,372,843.31,296.88,913.23,95.43,856.81,14.6ZM675.89,227.25c-31.84-45.61-28.43-116.94,7.62-159.31-9.17,10.77,129,14.57,122.92,5.88,31.84,45.62,28.43,116.94-7.62,159.31S707.73,272.87,675.89,227.25Z" transform="translate(0 110.07)"/><path class="cls-82" d="M840.63,75.13C790.29,3,703.28-1.15,646.29,65.84s-62.38,179.75-12,251.86S771.6,394,828.59,327,891,147.25,840.63,75.13ZM679.21,264.87c-28.41-40.7-25.37-104.34,6.79-142.15S767.27,87.27,795.68,128s25.37,104.34-6.8,142.14S707.62,305.57,679.21,264.87Z" transform="translate(0 110.07)"/><path class="cls-83" d="M810.48,49.23c-53-75.94-144.63-80.32-204.64-9.78s-65.69,189.27-12.68,265.21S737.79,385,797.8,314.44,863.49,125.17,810.48,49.23ZM640.5,249c-29.92-42.85-26.71-109.86,7.15-149.67-11.34,13.33,123.49,17,115.49,5.52,29.92,42.86,26.71,109.87-7.16,149.67S670.41,291.88,640.5,249Z" transform="translate(0 110.07)"/><path class="cls-77" d="M803.07,7.76C745-75.51,644.48-80.32,578.68-3s-72,207.54-13.91,290.81,158.59,88.08,224.4,10.73S861.19,91,803.07,7.76ZM616.68,226.83c-32.8-47-29.29-120.47,7.84-164.12s91.1-.65,123.91,46.35,32,80.18-5.11,123.83S649.48,273.83,616.68,226.83Z" transform="translate(0 110.07)"/><path class="cls-78" d="M864.8,86.37C806.68,3.11,706.21-1.7,640.41,75.64s-72,207.55-13.9,290.82S785.1,454.54,850.9,377.19,922.93,169.65,864.8,86.37ZM678.41,305.45c-32.8-47-29.29-120.47,7.85-164.12s93.83-40.94,126.64,6,29.29,120.48-7.85,164.13S711.21,352.44,678.41,305.45Z" transform="translate(0 110.07)"/><path class="cls-84" d="M870-43.72C812.1-127.3,711.67-132.64,645.63-55.64S573,151.55,630.8,235.13s158.29,88.92,224.33,11.92S927.82,39.87,870-43.72ZM683.14,174.74c-32.81-47-29.29-120.47,7.85-164.12s93.83-40.94,126.63,6.05,29.29,120.48-7.84,164.13S715.94,221.73,683.14,174.74Z" transform="translate(0 110.07)"/><path class="cls-80" d="M791.51,79.58C745.2,13.23,665.14,9.4,612.71,71s-57.4,165.38-11.08,231.73S728,373,780.43,311.31,837.83,145.93,791.51,79.58ZM643,254.15c-26.14-37.45-23.34-96,6.25-130.78S724,90.75,750.15,128.19s23.34,96-6.25,130.78S669.13,291.6,643,254.15Z" transform="translate(0 110.07)"/></g></g><g class="cls-13"><g class="cls-73"><path class="cls-81" d="M856.81,14.6C800.39-66.22,702.88-70.89,639,4.19s-69.91,201.45-13.49,282.28S779.44,372,843.31,296.88,913.23,95.43,856.81,14.6ZM675.89,227.25c-31.84-45.61-28.43-116.94,7.62-159.31-9.17,10.77,129,14.57,122.92,5.88,31.84,45.62,28.43,116.94-7.62,159.31S707.73,272.87,675.89,227.25Z" transform="translate(0 110.07)"/><path class="cls-82" d="M840.63,75.13C790.29,3,703.28-1.15,646.29,65.84s-62.38,179.75-12,251.86S771.6,394,828.59,327,891,147.25,840.63,75.13ZM679.21,264.87c-28.41-40.7-25.37-104.34,6.79-142.15S767.27,87.27,795.68,128s25.37,104.34-6.8,142.14S707.62,305.57,679.21,264.87Z" transform="translate(0 110.07)"/><path class="cls-85" d="M810.48,49.23c-53-75.94-144.63-80.32-204.64-9.78s-65.69,189.27-12.68,265.21S737.79,385,797.8,314.44,863.49,125.17,810.48,49.23ZM640.5,249c-29.92-42.85-26.71-109.86,7.15-149.67-11.34,13.33,123.49,17,115.49,5.52,29.92,42.86,26.71,109.87-7.16,149.67S670.41,291.88,640.5,249Z" transform="translate(0 110.07)"/><path class="cls-77" d="M803.07,7.76C745-75.51,644.48-80.32,578.68-3s-72,207.54-13.91,290.81,158.59,88.08,224.4,10.73S861.19,91,803.07,7.76ZM616.68,226.83c-32.8-47-29.29-120.47,7.84-164.12s91.1-.65,123.91,46.35,32,80.18-5.11,123.83S649.48,273.83,616.68,226.83Z" transform="translate(0 110.07)"/><path class="cls-78" d="M864.8,86.37C806.68,3.11,706.21-1.7,640.41,75.64s-72,207.55-13.9,290.82S785.1,454.54,850.9,377.19,922.93,169.65,864.8,86.37ZM678.41,305.45c-32.8-47-29.29-120.47,7.85-164.12s93.83-40.94,126.64,6,29.29,120.48-7.85,164.13S711.21,352.44,678.41,305.45Z" transform="translate(0 110.07)"/><path class="cls-79" d="M869.53-44.34c-58.13-83.27-158.59-88.07-224.39-10.73s-72,207.55-13.91,290.82,158.59,88.07,224.39,10.73S927.65,38.93,869.53-44.34ZM683.14,174.74c-32.81-47-29.29-120.47,7.85-164.12s93.83-40.94,126.63,6.05,29.29,120.48-7.84,164.13S715.94,221.73,683.14,174.74Z" transform="translate(0 110.07)"/><path class="cls-80" d="M791.51,79.58C745.2,13.23,665.14,9.4,612.71,71s-57.4,165.38-11.08,231.73S728,373,780.43,311.31,837.83,145.93,791.51,79.58ZM643,254.15c-26.14-37.45-23.34-96,6.25-130.78S724,90.75,750.15,128.19s23.34,96-6.25,130.78S669.13,291.6,643,254.15Z" transform="translate(0 110.07)"/></g></g><path class="cls-1" d="M744.47-21.59C636.34-26.76,560.13,44.47,554.82,155.65,549.54,266,618.64,343.56,726.76,348.72s184.32-65.46,189.6-175.78C921.67,61.76,852.59-16.43,744.47-21.59ZM850,169.77c-3.61,75.39-52,123.86-120.42,120.59-68.85-3.29-112.68-56.17-109.08-131.57,3.65-76.27,52.36-125.31,121.21-122C810.09,40,853.61,93.49,850,169.77Z" transform="translate(0 110.07)"/></g></g></g></g></svg>