<svg xmlns="http://www.w3.org/2000/svg"  viewBox="0 0 64 64" width="64px" height="64px"><linearGradient id="ekFqVciu6FUUcP_OnMVD~a" x1="32" x2="32" y1="6.667" y2="57.872" gradientUnits="userSpaceOnUse"><stop offset="0" stop-color="#1a6dff"/><stop offset="1" stop-color="#c822ff"/></linearGradient><path fill="url(#ekFqVciu6FUUcP_OnMVD~a)" d="M44,57H20c-7.168,0-13-5.832-13-13V20c0-7.168,5.832-13,13-13h24c7.168,0,13,5.832,13,13v24	C57,51.168,51.168,57,44,57z M20,9C13.935,9,9,13.935,9,20v24c0,6.065,4.935,11,11,11h24c6.065,0,11-4.935,11-11V20	c0-6.065-4.935-11-11-11H20z"/><linearGradient id="ekFqVciu6FUUcP_OnMVD~b" x1="29.365" x2="29.365" y1="17.25" y2="46.571" gradientUnits="userSpaceOnUse"><stop offset="0" stop-color="#6dc7ff"/><stop offset="1" stop-color="#e6abff"/></linearGradient><path fill="url(#ekFqVciu6FUUcP_OnMVD~b)" d="M35.999,17.268	c-0.956-0.553-2.18-0.224-2.731,0.733L21.729,38h4.618l10.385-18C37.284,19.042,36.956,17.82,35.999,17.268z"/><linearGradient id="ekFqVciu6FUUcP_OnMVD~c" x1="20.879" x2="20.879" y1="17.25" y2="46.571" gradientUnits="userSpaceOnUse"><stop offset="0" stop-color="#6dc7ff"/><stop offset="1" stop-color="#e6abff"/></linearGradient><path fill="url(#ekFqVciu6FUUcP_OnMVD~c)" d="M20.812,41	c-0.304,0-0.597,0.044-0.879,0.113L18.268,44c-0.552,0.957-0.224,2.18,0.733,2.732C19.315,46.914,19.659,47,19.998,47	c0.691,0,1.364-0.359,1.734-1.001l2.025-3.51C23.085,41.59,22.022,41,20.812,41z"/><linearGradient id="ekFqVciu6FUUcP_OnMVD~d" x1="25.75" x2="25.75" y1="17.25" y2="46.571" gradientUnits="userSpaceOnUse"><stop offset="0" stop-color="#6dc7ff"/><stop offset="1" stop-color="#e6abff"/></linearGradient><path fill="url(#ekFqVciu6FUUcP_OnMVD~d)" d="M36.5,38.875	c0-1.588-1.287-2.875-2.875-2.875H17c-1.104,0-2,0.896-2,2s0.896,2,2,2h19.271C36.418,39.654,36.5,39.274,36.5,38.875z"/><linearGradient id="ekFqVciu6FUUcP_OnMVD~e" x1="43.904" x2="43.904" y1="17.25" y2="46.571" gradientUnits="userSpaceOnUse"><stop offset="0" stop-color="#6dc7ff"/><stop offset="1" stop-color="#e6abff"/></linearGradient><path fill="url(#ekFqVciu6FUUcP_OnMVD~e)" d="M47,36h-8.192l2.308,4H47	c1.104,0,2-0.896,2-2S48.104,36,47,36z"/><linearGradient id="ekFqVciu6FUUcP_OnMVD~f" x1="39.8" x2="39.8" y1="17.25" y2="46.571" gradientUnits="userSpaceOnUse"><stop offset="0" stop-color="#6dc7ff"/><stop offset="1" stop-color="#e6abff"/></linearGradient><path fill="url(#ekFqVciu6FUUcP_OnMVD~f)" d="M45.732,44L35.001,25.408	c-0.876,1.066-1.402,2.43-1.402,3.918c0,1.119,0.296,2.167,0.816,3.072L42.268,46C42.638,46.642,43.311,47,44.002,47	c0.339,0,0.683-0.086,0.997-0.268C45.956,46.18,46.284,44.958,45.732,44z"/><linearGradient id="ekFqVciu6FUUcP_OnMVD~g" x1="30.077" x2="30.077" y1="17.25" y2="46.571" gradientUnits="userSpaceOnUse"><stop offset="0" stop-color="#6dc7ff"/><stop offset="1" stop-color="#e6abff"/></linearGradient><path fill="url(#ekFqVciu6FUUcP_OnMVD~g)" d="M30.845,26.201l2.309-4.002L30.732,18	c-0.552-0.957-1.776-1.286-2.731-0.733c-0.957,0.552-1.285,1.775-0.733,2.732L30.845,26.201z"/></svg>