<svg width="65" height="64" viewBox="0 0 65 64" fill="none" xmlns="http://www.w3.org/2000/svg">
<path d="M64.0637 39.3166C68.1054 22.1118 57.4346 4.88816 40.2298 0.846488C23.0251 -3.19519 5.80143 7.4756 1.75975 24.6804C-2.28192 41.8851 8.38886 59.1088 25.5936 63.1504C42.7984 67.1921 60.022 56.5213 64.0637 39.3166Z" fill="#14B0BF"/>
<g style="mix-blend-mode:multiply">
<g style="mix-blend-mode:multiply">
<path d="M31.0564 0.0558882C30.5534 0.0558882 30.0504 0.127744 29.5554 0.175649H29.5075C28.4348 0.290536 27.3689 0.461092 26.3139 0.686627L26.2261 20.1277H26.7131V20.6786C26.274 21.2056 26.1622 22.1317 25.9147 23.4491V23.5928L25.4835 23.2016C25.2453 22.9655 24.9231 22.8337 24.5877 22.8352C24.2523 22.8367 23.9312 22.9714 23.6951 23.2096C23.459 23.4478 23.3272 23.7701 23.3287 24.1054C23.3302 24.4408 23.4649 24.7619 23.7031 24.998L25.5075 26.8822L25.4436 27.4012L24.8688 28.4551L24.5255 28.8782L22.8408 27.7046C22.5605 27.5188 22.2195 27.448 21.8884 27.5068C21.5572 27.5657 21.2615 27.7497 21.0623 28.0206C20.8632 28.2916 20.7759 28.6289 20.8187 28.9624C20.8614 29.296 21.0309 29.6003 21.2919 29.8124L21.5714 30.0279C21.6587 30.189 21.7783 30.3303 21.9227 30.4431L22.1941 30.6507C22.2818 30.8115 22.4014 30.9528 22.5454 31.0659L22.6572 31.1537L21.2041 32.9261C20.4057 33.988 19.7909 34.7066 19.7191 35.3932L19.3358 35.7764L18.9925 35.4251L5.41968 48.4152C5.77896 49.006 6.15421 49.5888 6.54543 50.1557V50.2116C6.92866 50.7625 7.34383 51.2974 7.73505 51.8084L7.78295 51.8643C8.64326 52.9465 9.57126 53.9732 10.5614 54.9381L10.6812 55.0579C15.2003 59.4296 20.9076 62.3728 27.0898 63.5196C33.2721 64.6663 39.6552 63.9659 45.4417 61.5059C51.2282 59.0458 56.1614 54.9351 59.6251 49.6874C63.0888 44.4397 64.9293 38.2877 64.9167 32C64.9291 30.9127 64.8865 29.8255 64.7889 28.7425L37.4596 0.870259L36.8448 0.798403V0.247505C36.238 0.175649 35.6233 0.11976 35.0085 0.0718563H34.8488C34.2101 0 33.5634 0 32.9167 0C32.27 0 31.7909 0 31.256 0.0479042L31.0564 0.0558882Z" fill="#CCCCCC"/>
</g>
</g>
<path d="M44.4148 34.9632L37.6781 41.7756L42.6398 46.6822L49.3765 39.8698L44.4148 34.9632Z" fill="#F2CE9E"/>
<path d="M43.3598 32.9261L39.6792 28.4551L36.4057 22.3553C36.2861 22.1139 36.0755 21.9299 35.8202 21.8438C35.5649 21.7577 35.2859 21.7766 35.0445 21.8962C34.8031 22.0158 34.6191 22.2265 34.533 22.4818C34.4469 22.7371 34.4657 23.0161 34.5854 23.2575L36.9806 28.5828C36.7807 28.7154 36.5727 28.8354 36.3578 28.9421L30.5854 21.4371C30.4879 21.3045 30.3652 21.1924 30.2244 21.1071C30.0835 21.0219 29.9273 20.9653 29.7645 20.9404C29.6018 20.9156 29.4358 20.9231 29.2759 20.9624C29.1161 21.0017 28.9655 21.0721 28.8329 21.1697C28.7003 21.2672 28.5881 21.3898 28.5029 21.5307C28.4177 21.6715 28.361 21.8278 28.3362 21.9905C28.3114 22.1532 28.3188 22.3193 28.3582 22.4791C28.3975 22.639 28.4679 22.7895 28.5654 22.9222L33.8269 30.3393C33.6964 30.4363 33.5711 30.5403 33.4517 30.6507L25.4676 23.2255C25.2294 22.9894 24.9072 22.8576 24.5718 22.8591C24.2364 22.8606 23.9153 22.9953 23.6792 23.2335C23.4431 23.4717 23.3113 23.794 23.3128 24.1294C23.3143 24.4648 23.449 24.7859 23.6872 25.022L31.3119 33.006L31.3758 33.0699L31.4317 33.1098L31.1682 33.493L22.8409 27.7046C22.5606 27.5188 22.2195 27.448 21.8884 27.5068C21.5573 27.5657 21.2615 27.7496 21.0624 28.0206C20.8632 28.2916 20.776 28.6289 20.8187 28.9624C20.8615 29.296 21.0309 29.6003 21.292 29.8124L29.4038 36.0559L29.4676 36.1038H29.5395C29.9072 36.3842 30.2492 36.6968 30.5614 37.0379H30.3538L29.268 37.1657L27.3758 37.3972L26.0505 37.5649L25.5395 37.6128C25.3639 37.6285 25.1931 37.6787 25.0368 37.7604C24.8806 37.8421 24.742 37.9538 24.6289 38.0891C24.4006 38.3624 24.2902 38.7152 24.3219 39.0699C24.3537 39.4245 24.525 39.7521 24.7983 39.9804C25.0715 40.2087 25.4243 40.3192 25.779 40.2874H26.266L27.5594 40.2395C28.0944 40.2395 28.7171 40.2395 29.3798 40.2395C29.7151 40.2395 30.0505 40.2395 30.3938 40.3034C30.5534 40.3034 30.7451 40.3034 30.8888 40.3513L31.3119 40.4152C31.64 40.4641 31.9651 40.5308 32.286 40.6148H32.3499C32.0944 40.6148 32.278 40.6148 32.2221 40.6148H32.286L32.4217 40.6547L32.6852 40.7345L33.2121 40.8782C33.9067 41.0858 34.5535 41.2934 35.1123 41.477C35.6712 41.6607 36.0784 41.8044 36.3818 41.9241C36.6852 42.0439 36.8608 42.1158 36.8608 42.1158C37.2346 42.2776 37.6389 42.357 38.0462 42.3485C38.4534 42.34 38.8541 42.2439 39.2208 42.0666C39.5875 41.8893 39.9117 41.635 40.1713 41.3211C40.4309 41.0072 40.6198 40.641 40.7251 40.2475L44.1742 36.7505C45.4916 35.505 44.6852 34.6906 43.3598 32.9261Z" fill="#F2E0C9"/>
<path d="M45.5714 35.4251L38.1462 42.9301L52.7171 57.1257C55.4999 54.9324 57.9008 52.294 59.8229 49.3174L45.5714 35.4251Z" fill="#FDB100"/>
<path d="M20.1468 34.9737L15.1851 39.8802L21.9218 46.6927L26.8835 41.7861L20.1468 34.9737Z" fill="#F2CE9E"/>
<path d="M21.2041 32.9262L24.8768 28.4551L28.1502 22.3553C28.2741 22.1296 28.4787 21.959 28.7229 21.8776C28.9671 21.7962 29.2331 21.81 29.4676 21.9162C29.712 22.0276 29.9022 22.2313 29.9965 22.4828C30.0908 22.7343 30.0815 23.0129 29.9706 23.2575L27.5754 28.5828C27.7791 28.7137 27.9897 28.8336 28.2061 28.9421L33.9786 21.4371C34.1845 21.196 34.4741 21.0419 34.7891 21.0058C35.1041 20.9697 35.4211 21.0544 35.6762 21.2427C35.9313 21.4309 36.1055 21.7089 36.1639 22.0205C36.2222 22.3322 36.1603 22.6544 35.9906 22.9222L30.7371 30.3393C30.865 30.4364 30.9876 30.5404 31.1043 30.6507L39.0884 23.2256C39.333 23.0478 39.6333 22.9638 39.9346 22.9888C40.2359 23.0139 40.5182 23.1463 40.7301 23.3621C40.942 23.5778 41.0693 23.8625 41.0889 24.1642C41.1085 24.4659 41.019 24.7647 40.8369 25.006L33.2121 32.99C33.1951 33.0152 33.1734 33.0369 33.1482 33.0539C33.1331 33.0715 33.1139 33.0852 33.0924 33.0938C33.1802 33.2216 33.276 33.3493 33.3558 33.4771L41.7151 27.7046C41.995 27.5536 42.3203 27.5097 42.6303 27.5811C42.9402 27.6524 43.2136 27.8341 43.3993 28.0922C43.5851 28.3504 43.6706 28.6673 43.6398 28.9838C43.609 29.3004 43.4641 29.5949 43.2321 29.8124L35.1522 36.0559L35.0964 36.1038H35.0245C34.655 36.3821 34.3128 36.6949 34.0025 37.0379H34.2021L35.296 37.1657L37.1802 37.3972L38.5135 37.5649L39.0245 37.6128C39.3792 37.6445 39.7067 37.8159 39.935 38.0892C40.1634 38.3624 40.2738 38.7152 40.2421 39.0699C40.2103 39.4245 40.0389 39.7521 39.7657 39.9804C39.4924 40.2088 39.1397 40.3192 38.785 40.2874H38.2979L37.0045 40.2395C36.4696 40.2395 35.8468 40.2395 35.1842 40.2395C34.8568 40.2395 34.5215 40.2395 34.1782 40.3034C34.0185 40.3034 33.8189 40.3034 33.6832 40.3513L33.26 40.4152C32.9295 40.4648 32.6017 40.5315 32.278 40.6148H32.2221C32.4776 40.6148 32.294 40.6148 32.3498 40.6148H32.286L32.1502 40.6547L31.8788 40.7345L31.3518 40.8782C30.6652 41.0858 30.0185 41.2934 29.4596 41.4771C28.9007 41.6607 28.4936 41.8044 28.1902 41.9242C27.8868 42.0439 27.7031 42.1158 27.7031 42.1158C27.202 42.3374 26.6467 42.4069 26.1063 42.3154C25.565 42.2299 25.0603 41.989 24.6534 41.6218C24.2466 41.2547 23.9553 40.7772 23.8149 40.2475L20.3578 36.8064C19.0644 35.505 19.8708 34.6906 21.2041 32.9262Z" fill="#D4B48A"/>
<path d="M43.3598 32.9261L39.6792 28.4551L36.4057 22.3553C36.2861 22.1139 36.0755 21.9299 35.8202 21.8438C35.5649 21.7577 35.2859 21.7766 35.0445 21.8962C34.8031 22.0158 34.6191 22.2265 34.533 22.4818C34.4469 22.7371 34.4657 23.0161 34.5854 23.2575L36.9806 28.5828C36.7807 28.7154 36.5727 28.8354 36.3578 28.9421L30.5854 21.4371C30.4879 21.3045 30.3652 21.1924 30.2244 21.1071C30.0835 21.0219 29.9273 20.9653 29.7645 20.9404C29.6018 20.9156 29.4358 20.9231 29.2759 20.9624C29.1161 21.0017 28.9655 21.0721 28.8329 21.1697C28.7003 21.2672 28.5881 21.3898 28.5029 21.5307C28.4177 21.6715 28.361 21.8278 28.3362 21.9905C28.3114 22.1532 28.3188 22.3193 28.3582 22.4791C28.3975 22.639 28.4679 22.7895 28.5654 22.9222L33.8269 30.3393C33.6964 30.4363 33.5711 30.5403 33.4517 30.6507L25.4676 23.2255C25.2294 22.9894 24.9072 22.8576 24.5718 22.8591C24.2364 22.8606 23.9153 22.9953 23.6792 23.2335C23.4431 23.4717 23.3113 23.794 23.3128 24.1294C23.3143 24.4648 23.449 24.7859 23.6872 25.022L31.3119 33.006L31.3758 33.0699L31.4317 33.1098L31.1682 33.493L22.8409 27.7046C22.5606 27.5188 22.2195 27.448 21.8884 27.5068C21.5573 27.5657 21.2615 27.7496 21.0624 28.0206C20.8632 28.2916 20.776 28.6289 20.8187 28.9624C20.8615 29.296 21.0309 29.6003 21.292 29.8124L29.4038 36.0559L29.4676 36.1038H29.5395C29.9072 36.3842 30.2492 36.6968 30.5614 37.0379H30.3538L29.268 37.1657L27.3758 37.3972L26.0505 37.5649L25.5395 37.6128C25.3639 37.6285 25.1931 37.6787 25.0368 37.7604C24.8806 37.8421 24.742 37.9538 24.6289 38.0891C24.4006 38.3624 24.2902 38.7152 24.3219 39.0699C24.3537 39.4245 24.525 39.7521 24.7983 39.9804C25.0715 40.2087 25.4243 40.3192 25.779 40.2874H26.266L27.5594 40.2395C28.0944 40.2395 28.7171 40.2395 29.3798 40.2395C29.7151 40.2395 30.0505 40.2395 30.3938 40.3034C30.5534 40.3034 30.7451 40.3034 30.8888 40.3513L31.3119 40.4152C31.64 40.4641 31.9651 40.5308 32.286 40.6148H32.3499C32.0944 40.6148 32.278 40.6148 32.2221 40.6148H32.286L32.4217 40.6547L32.6852 40.7345L33.2121 40.8782C33.9067 41.0858 34.5535 41.2934 35.1123 41.477C35.6712 41.6607 36.0784 41.8044 36.3818 41.9241C36.6852 42.0439 36.8608 42.1158 36.8608 42.1158C37.2346 42.2776 37.6389 42.357 38.0462 42.3485C38.4534 42.34 38.8541 42.2439 39.2208 42.0666C39.5875 41.8893 39.9117 41.635 40.1713 41.3211C40.4309 41.0072 40.6198 40.641 40.7251 40.2475L44.1742 36.7505C45.4916 35.505 44.6852 34.6906 43.3598 32.9261Z" fill="#F2E0C9"/>
<path d="M21.2041 32.9262L24.8768 28.4551L28.1502 22.3553C28.2741 22.1296 28.4787 21.959 28.7229 21.8776C28.9671 21.7962 29.2331 21.81 29.4676 21.9162C29.712 22.0276 29.9022 22.2313 29.9965 22.4828C30.0908 22.7343 30.0815 23.0129 29.9706 23.2575L27.5754 28.5828C27.7791 28.7137 27.9897 28.8336 28.2061 28.9421L33.9786 21.4371C34.1845 21.196 34.4741 21.0419 34.7891 21.0058C35.1041 20.9697 35.4211 21.0544 35.6762 21.2427C35.9313 21.4309 36.1055 21.7089 36.1639 22.0205C36.2222 22.3322 36.1603 22.6544 35.9906 22.9222L30.7371 30.3393C30.865 30.4364 30.9876 30.5404 31.1043 30.6507L39.0884 23.2256C39.333 23.0478 39.6333 22.9638 39.9346 22.9888C40.2359 23.0139 40.5182 23.1463 40.7301 23.3621C40.942 23.5778 41.0693 23.8625 41.0889 24.1642C41.1085 24.4659 41.019 24.7647 40.8369 25.006L33.2121 32.99C33.1951 33.0152 33.1734 33.0369 33.1482 33.0539C33.1331 33.0715 33.1139 33.0852 33.0924 33.0938C33.1802 33.2216 33.276 33.3493 33.3558 33.4771L41.7151 27.7046C41.995 27.5536 42.3203 27.5097 42.6303 27.5811C42.9402 27.6524 43.2136 27.8341 43.3993 28.0922C43.5851 28.3504 43.6706 28.6673 43.6398 28.9838C43.609 29.3004 43.4641 29.5949 43.2321 29.8124L35.1522 36.0559L35.0964 36.1038H35.0245C34.655 36.3821 34.3128 36.6949 34.0025 37.0379H34.2021L35.296 37.1657L37.1802 37.3972L38.5135 37.5649L39.0245 37.6128C39.3792 37.6445 39.7067 37.8159 39.935 38.0892C40.1634 38.3624 40.2738 38.7152 40.2421 39.0699C40.2103 39.4245 40.0389 39.7521 39.7657 39.9804C39.4924 40.2088 39.1397 40.3192 38.785 40.2874H38.2979L37.0045 40.2395C36.4696 40.2395 35.8468 40.2395 35.1842 40.2395C34.8568 40.2395 34.5215 40.2395 34.1782 40.3034C34.0185 40.3034 33.8189 40.3034 33.6832 40.3513L33.26 40.4152C32.9295 40.4648 32.6017 40.5315 32.278 40.6148H32.2221C32.4776 40.6148 32.294 40.6148 32.3498 40.6148H32.286L32.1502 40.6547L31.8788 40.7345L31.3518 40.8782C30.6652 41.0858 30.0185 41.2934 29.4596 41.4771C28.9007 41.6607 28.4936 41.8044 28.1902 41.9242C27.8868 42.0439 27.7031 42.1158 27.7031 42.1158C27.202 42.3374 26.6467 42.4069 26.1063 42.3154C25.565 42.2299 25.0603 41.989 24.6534 41.6218C24.2466 41.2547 23.9553 40.7772 23.8149 40.2475L20.3578 36.8064C19.0644 35.505 19.8708 34.6906 21.2041 32.9262Z" fill="#D4B48A"/>
<path d="M5.4436 48.4152C7.2701 51.4554 9.58445 54.1744 12.2939 56.4631L26.4097 42.9301L18.9925 35.4251L5.4436 48.4152Z" fill="#4B4B55"/>
<path d="M26.8241 14.3106L26.6816 21.2871L36.2605 21.4828L36.403 14.5062L26.8241 14.3106Z" fill="#F2CE9E"/>
<g style="mix-blend-mode:multiply">
<g style="mix-blend-mode:multiply">
<path d="M43.3599 32.9261L41.763 30.978L42.3539 30.5229L41.8908 30.02C41.6672 29.7724 41.4676 29.501 41.2441 29.2215C41.1483 29.0938 41.0205 28.9501 40.9327 28.8383L40.6932 28.487L40.6533 28.4311L40.0385 28.8623L39.6872 28.4391L38.9287 27.018L39.5275 26.3872C39.28 25.8922 39.0485 25.4052 38.8489 24.982C38.6493 24.5589 38.4736 24.1836 38.3459 23.8722L37.6113 24.5669L36.4058 22.3553C36.3475 22.2548 36.2748 22.1634 36.1902 22.0838C36.1663 21.8675 36.0865 21.6611 35.9587 21.485C35.3179 21.3614 34.6541 21.4659 34.0824 21.7804H33.6912L32.278 23.6168L30.8169 21.7166H29.1722C28.9306 21.7091 28.689 21.7332 28.4537 21.7884C28.412 21.8961 28.3852 22.0089 28.3738 22.1237C28.2844 22.2009 28.2088 22.2927 28.1503 22.3952L27.0165 24.519C27.0165 24.6786 26.9607 24.8303 26.9367 25.006L26.2261 30.7465L24.0704 37.2774C23.9773 37.5305 23.9884 37.8102 24.1015 38.055C24.2145 38.2998 24.4202 38.4897 24.6732 38.5828C24.9263 38.676 25.206 38.6648 25.4508 38.5518C25.6956 38.4387 25.8854 38.2331 25.9786 37.98L28.1742 32.5589C28.3978 32.6148 28.6293 32.6866 28.8688 32.7665L27.3758 42.1158C27.3758 42.1716 27.3758 42.2275 27.3758 42.2754L27.6792 42.1716C27.6792 42.1716 27.8549 42.0918 28.1662 41.98C28.4776 41.8683 28.9008 41.7086 29.4357 41.5329L30.0984 41.3174L31.6153 33.6687L32.1024 33.7245L32.1583 40.7186H32.2541H32.31L32.4457 40.7585L32.7092 40.8383L33.2361 40.982C33.8349 41.1577 34.3778 41.3333 34.8808 41.501L35.2481 33.6367V33.5329C35.2481 33.5329 35.2481 33.5329 35.2481 33.4691L35.7112 33.3972L37.0684 42.2355C37.5096 42.3865 37.9803 42.4302 38.4417 42.3633C38.9072 42.2856 39.3462 42.0936 39.7191 41.8044L38.809 32.9261C38.8133 32.9024 38.8133 32.878 38.809 32.8543C38.8059 32.8278 38.8059 32.801 38.809 32.7744C38.7608 32.3153 38.7608 31.8524 38.809 31.3932L38.9607 31.521L39.807 32.2235L41.276 33.4291L42.3139 34.2834L42.6972 34.6188C42.9621 34.843 43.3033 34.9564 43.6497 34.9356C43.9962 34.9148 44.3213 34.7613 44.5575 34.507C44.2301 34.0519 43.8309 33.5329 43.3599 32.9261ZM29.6593 27.0659L28.6852 26.1637L29.5555 24.2395L30.6413 25.7804L29.6593 27.0659ZM32.302 29.517L31.7032 28.9581L32.302 28.1118L32.8529 28.982L32.302 29.517ZM34.9607 27.0419L33.9706 25.7565L35.0565 24.2156L35.9267 26.1397L34.9607 27.0419Z" fill="#DEC6A9"/>
</g>
</g>
<path d="M25.9307 23.4571L25.2201 29.1976L23.0485 35.7684C22.9553 36.0215 22.9665 36.3012 23.0795 36.546C23.1925 36.7908 23.3982 36.9807 23.6513 37.0738C23.9043 37.167 24.184 37.1558 24.4288 37.0428C24.6736 36.9297 24.8635 36.7241 24.9566 36.471L27.1523 31.0499C27.3838 31.1058 27.6073 31.1776 27.8469 31.2575L26.3778 40.6068C26.3304 40.9292 26.4105 41.2574 26.601 41.5218C26.7915 41.7862 27.0775 41.966 27.3983 42.0231C27.7192 42.0802 28.0496 42.0102 28.3197 41.8277C28.5897 41.6453 28.7781 41.3649 28.8449 41.0459L30.6014 32.1597L31.0884 32.2155L31.1842 43.1137C31.2015 43.4332 31.3388 43.7344 31.5686 43.957C31.7985 44.1796 32.1039 44.3072 32.4238 44.3142C32.7436 44.3213 33.0544 44.2073 33.2938 43.9951C33.5333 43.7829 33.6837 43.488 33.7151 43.1696L34.266 32.1357V32.0399C34.266 32.0399 34.266 32.0399 34.266 31.976L34.7291 31.9042L36.278 41.9401C36.3355 42.2728 36.5193 42.5704 36.7909 42.7708C37.0626 42.9713 37.4012 43.059 37.7361 43.0157C38.0709 42.9725 38.3761 42.8015 38.5879 42.5386C38.7997 42.2757 38.9018 41.9411 38.8728 41.6048L37.8109 31.4171C37.8109 31.4171 37.8109 31.3613 37.8109 31.3373C37.8109 31.3133 37.8109 31.2894 37.8109 31.2654C37.7628 30.8063 37.7628 30.3434 37.8109 29.8842L37.9706 30.012L38.8089 30.7145L40.2221 31.9361L41.2521 32.7904L41.6433 33.1257C41.9124 33.3132 42.2409 33.3955 42.5667 33.3572C42.8924 33.3189 43.1928 33.1625 43.4111 32.9177C43.6294 32.6729 43.7504 32.3566 43.7512 32.0286C43.7521 31.7006 43.6327 31.3837 43.4157 31.1377L43.0564 30.8104L42.1143 29.8443C41.7471 29.4611 41.3159 29.006 40.8848 28.503C40.6532 28.2634 40.4536 27.992 40.2381 27.7046C40.1343 27.5768 40.0065 27.4331 39.9267 27.3133L39.6792 26.97C39.4873 26.6956 39.3113 26.4104 39.1523 26.1157L39.2241 26.2195V26.1557L39.1602 26.0279L39.0325 25.7804L38.777 25.3014C38.4497 24.6626 38.1542 24.0479 37.9067 23.5129C37.6592 22.978 37.4756 22.5868 37.3558 22.2834C37.2361 21.98 37.1642 21.8044 37.1642 21.8044C36.9793 21.2991 36.6555 20.8563 36.2301 20.5269C35.7959 20.1937 35.2744 19.9936 34.7287 19.9511C34.183 19.9086 33.6368 20.0254 33.1562 20.2874L28.2381 20.1916C26.3299 20.1277 26.29 21.2774 25.9307 23.4571Z" fill="#FFE2C2"/>
<path d="M36.8448 0.247501C33.3237 -0.196618 29.753 -0.0454754 26.282 0.694607L26.2261 20.1277L36.773 20.3433L36.8448 0.247501Z" fill="white"/>
</svg>
