<svg width="29" height="29" viewBox="0 0 29 29" fill="#333" xmlns="http://www.w3.org/2000/svg">
  <path d="M14.5 0C6.48628 0 0 6.4852 0 14.5C0 22.5137 6.4852 29 14.5 29C22.5137 29 29 22.5148 29 14.5C29 6.48628 22.5148 0 14.5 0ZM3.44423 13.6471H1.735C1.92594 10.7601 3.07832 8.13211 4.87467 6.0809L6.08335 7.28958C4.59258 9.0273 3.62898 11.2298 3.44423 13.6471ZM21.7104 6.08335C19.9727 4.59258 17.7701 3.62898 15.3529 3.44423V1.735C18.2398 1.92594 20.8679 3.07832 22.9191 4.87467L21.7104 6.08335ZM13.6471 3.44423C11.2298 3.62898 9.0273 4.59258 7.28958 6.08335L6.0809 4.87473C8.13211 3.07832 10.7601 1.926 13.6471 1.735V3.44423ZM14.5 5.11765C19.6734 5.11765 23.8824 9.32657 23.8824 14.5C23.8824 19.6734 19.6734 23.8824 14.5 23.8824C9.32657 23.8824 5.11765 19.6734 5.11765 14.5C5.11765 9.32657 9.32657 5.11765 14.5 5.11765ZM7.28958 22.9167C9.0273 24.4074 11.2298 25.371 13.6471 25.5558V27.2651C10.7601 27.0741 8.13211 25.9217 6.0809 24.1253L7.28958 22.9167ZM15.3529 25.5558C17.7701 25.371 19.9727 24.4074 21.7104 22.9167L22.9191 24.1253C20.8679 25.9217 18.2399 27.0741 15.3529 27.2651V25.5558ZM22.9167 21.7104C24.4074 19.9727 25.371 17.7702 25.5558 15.3529H27.2651C27.0741 18.2399 25.9217 20.8679 24.1253 22.9191L22.9167 21.7104ZM27.265 13.6471H25.5557C25.371 11.2298 24.4074 9.0273 22.9166 7.28958L24.1253 6.0809C25.9217 8.13211 27.074 10.7601 27.265 13.6471ZM1.735 15.3529H3.44423C3.62898 17.7701 4.59258 19.9727 6.08335 21.7104L4.87467 22.9191C3.07832 20.8679 1.926 18.2399 1.735 15.3529Z" />
  <path d="M11.0883 7.67657H17.9118V9.38246H11.0883V7.67657Z" />
  <path d="M11.0883 19.6176H17.9118V21.3234H11.0883V19.6176Z" />
  <path d="M18.408 10.696V19H17.316V12.808L14.556 19H13.788L11.016 12.796V19H9.924V10.696H11.1L14.172 17.56L17.244 10.696H18.408Z" />
</svg>
