<svg class="animated" id="freepik_stories-uploading" xmlns="http://www.w3.org/2000/svg" viewBox="0 0 500 500" version="1.1" xmlns:xlink="http://www.w3.org/1999/xlink" xmlns:svgjs="http://svgjs.com/svgjs"><style>svg#freepik_stories-uploading:not(.animated) .animable {opacity: 0;}svg#freepik_stories-uploading.animated #freepik--background-complete--inject-2 {animation: 1s 1 forwards cubic-bezier(.36,-0.01,.5,1.38) zoomOut;animation-delay: 0s;}svg#freepik_stories-uploading.animated #freepik--Shadow--inject-2 {animation: 1s 1 forwards cubic-bezier(.36,-0.01,.5,1.38) slideLeft;animation-delay: 0s;}svg#freepik_stories-uploading.animated #freepik--Files--inject-2 {animation: 1s 1 forwards cubic-bezier(.36,-0.01,.5,1.38) zoomOut;animation-delay: 0s;}svg#freepik_stories-uploading.animated #freepik--Cloud--inject-2 {animation: 1s 1 forwards cubic-bezier(.36,-0.01,.5,1.38) slideUp;animation-delay: 0s;}svg#freepik_stories-uploading.animated #freepik--Stuff--inject-2 {animation: 1s 1 forwards cubic-bezier(.36,-0.01,.5,1.38) slideLeft;animation-delay: 0s;}svg#freepik_stories-uploading.animated #freepik--Chair--inject-2 {animation: 1s 1 forwards cubic-bezier(.36,-0.01,.5,1.38) slideDown;animation-delay: 0s;}svg#freepik_stories-uploading.animated #freepik--Character--inject-2 {animation: 1s 1 forwards cubic-bezier(.36,-0.01,.5,1.38) zoomOut;animation-delay: 0s;}svg#freepik_stories-uploading.animated #freepik--Table--inject-2 {animation: 1s 1 forwards cubic-bezier(.36,-0.01,.5,1.38) fadeIn;animation-delay: 0s;}            @keyframes zoomOut {                0% {                    opacity: 0;                    transform: scale(1.5);                }                100% {                    opacity: 1;                    transform: scale(1);                }            }                    @keyframes slideLeft {                0% {                    opacity: 0;                    transform: translateX(-30px);                }                100% {                    opacity: 1;                    transform: translateX(0);                }            }                    @keyframes slideUp {                0% {                    opacity: 0;                    transform: translateY(30px);                }                100% {                    opacity: 1;                    transform: inherit;                }            }                    @keyframes slideDown {                0% {                    opacity: 0;                    transform: translateY(-30px);                }                100% {                    opacity: 1;                    transform: translateY(0);                }            }                    @keyframes fadeIn {                0% {                    opacity: 0;                }                100% {                    opacity: 1;                }            }        </style><g id="freepik--background-complete--inject-2" class="animable" style="transform-origin: 250px 228.23px;"><rect y="382.4" width="500" height="0.25" style="fill: rgb(235, 235, 235); transform-origin: 250px 382.525px;" id="elpg8a0jtxh6" class="animable"></rect><rect x="416.78" y="398.49" width="33.12" height="0.25" style="fill: rgb(235, 235, 235); transform-origin: 433.34px 398.615px;" id="eloeztk4bjje" class="animable"></rect><rect x="322.53" y="401.21" width="8.69" height="0.25" style="fill: rgb(235, 235, 235); transform-origin: 326.875px 401.335px;" id="elrotc8uuwhoj" class="animable"></rect><rect x="396.59" y="389.21" width="19.19" height="0.25" style="fill: rgb(235, 235, 235); transform-origin: 406.185px 389.335px;" id="ela1o5ath1fg" class="animable"></rect><rect x="52.46" y="390.89" width="43.19" height="0.25" style="fill: rgb(235, 235, 235); transform-origin: 74.055px 391.015px;" id="elaptxjjp5nq" class="animable"></rect><rect x="104.56" y="390.89" width="6.33" height="0.25" style="fill: rgb(235, 235, 235); transform-origin: 107.725px 391.015px;" id="ela63n6y3gbm" class="animable"></rect><rect x="131.47" y="395.11" width="93.68" height="0.25" style="fill: rgb(235, 235, 235); transform-origin: 178.31px 395.235px;" id="elozjbmc2i0wd" class="animable"></rect><path d="M237,337.8H43.91a5.71,5.71,0,0,1-5.7-5.71V60.66A5.71,5.71,0,0,1,43.91,55H237a5.71,5.71,0,0,1,5.71,5.71V332.09A5.71,5.71,0,0,1,237,337.8ZM43.91,55.2a5.46,5.46,0,0,0-5.45,5.46V332.09a5.46,5.46,0,0,0,5.45,5.46H237a5.47,5.47,0,0,0,5.46-5.46V60.66A5.47,5.47,0,0,0,237,55.2Z" style="fill: rgb(235, 235, 235); transform-origin: 140.46px 196.4px;" id="el1jzbf2un2rj" class="animable"></path><path d="M453.31,337.8H260.21a5.72,5.72,0,0,1-5.71-5.71V60.66A5.72,5.72,0,0,1,260.21,55h193.1A5.71,5.71,0,0,1,459,60.66V332.09A5.71,5.71,0,0,1,453.31,337.8ZM260.21,55.2a5.47,5.47,0,0,0-5.46,5.46V332.09a5.47,5.47,0,0,0,5.46,5.46h193.1a5.47,5.47,0,0,0,5.46-5.46V60.66a5.47,5.47,0,0,0-5.46-5.46Z" style="fill: rgb(235, 235, 235); transform-origin: 356.75px 196.4px;" id="elx1g8x14l55j" class="animable"></path><rect x="316.8" y="138.61" width="130.44" height="6.7" style="fill: rgb(224, 224, 224); transform-origin: 382.02px 141.96px;" id="elauy9stlq4bj" class="animable"></rect><rect x="322.8" y="113.91" width="5.75" height="24.7" style="fill: rgb(235, 235, 235); transform-origin: 325.675px 126.26px;" id="el3bsq8zzlgya" class="animable"></rect><rect x="350.59" y="113.91" width="5.75" height="24.7" style="fill: rgb(235, 235, 235); transform-origin: 353.465px 126.26px;" id="elcyqiuifxfg" class="animable"></rect><g id="elnr0fru6mv8"><rect x="384.28" y="113.6" width="5.75" height="24.7" style="fill: rgb(235, 235, 235); transform-origin: 387.155px 125.95px; transform: rotate(-9.78deg);" class="animable"></rect></g><rect x="329.92" y="117.17" width="5.75" height="21.45" style="fill: rgb(235, 235, 235); transform-origin: 332.795px 127.895px;" id="elvwvnrm1yot" class="animable"></rect><rect x="343.13" y="117.17" width="5.75" height="21.45" style="fill: rgb(235, 235, 235); transform-origin: 346.005px 127.895px;" id="elj7wabfdihs9" class="animable"></rect><rect x="376.47" y="117.17" width="5.75" height="21.45" style="fill: rgb(235, 235, 235); transform-origin: 379.345px 127.895px;" id="elrvs06nyj7di" class="animable"></rect><g id="eljpkgjqmvoz7"><rect x="360.53" y="116.8" width="5.75" height="21.45" style="fill: rgb(235, 235, 235); transform-origin: 363.405px 127.525px; transform: rotate(-12.53deg);" class="animable"></rect></g><rect x="337.77" y="112.68" width="2.87" height="25.93" style="fill: rgb(235, 235, 235); transform-origin: 339.205px 125.645px;" id="eley35d2992vc" class="animable"></rect><rect x="371.95" y="112.68" width="2.87" height="25.93" style="fill: rgb(235, 235, 235); transform-origin: 373.385px 125.645px;" id="elz6dyc4ib8o" class="animable"></rect><rect x="406.72" y="119.06" width="28" height="19.33" style="fill: rgb(235, 235, 235); transform-origin: 420.72px 128.725px;" id="el8yj0sb0v9i7" class="animable"></rect><g id="elkdf2q4hbb3b"><rect x="316.8" y="188.65" width="130.44" height="6.7" style="fill: rgb(224, 224, 224); transform-origin: 382.02px 192px; transform: rotate(180deg);" class="animable"></rect></g><g id="el6eb8yeuck5w"><rect x="435.49" y="163.94" width="5.75" height="24.7" style="fill: rgb(235, 235, 235); transform-origin: 438.365px 176.29px; transform: rotate(180deg);" class="animable"></rect></g><g id="el62t1jxlkfj4"><rect x="407.7" y="163.94" width="5.75" height="24.7" style="fill: rgb(235, 235, 235); transform-origin: 410.575px 176.29px; transform: rotate(180deg);" class="animable"></rect></g><g id="elm4n7lkuzyf"><rect x="374.02" y="163.63" width="5.75" height="24.7" style="fill: rgb(235, 235, 235); transform-origin: 376.895px 175.98px; transform: rotate(-170.22deg);" class="animable"></rect></g><g id="elq0xkybmag4k"><rect x="428.37" y="167.2" width="5.75" height="21.45" style="fill: rgb(235, 235, 235); transform-origin: 431.245px 177.925px; transform: rotate(180deg);" class="animable"></rect></g><g id="elph0rqzt5bej"><rect x="415.16" y="167.2" width="5.75" height="21.45" style="fill: rgb(235, 235, 235); transform-origin: 418.035px 177.925px; transform: rotate(180deg);" class="animable"></rect></g><g id="elnzi54zf7lor"><rect x="381.82" y="167.2" width="5.75" height="21.45" style="fill: rgb(235, 235, 235); transform-origin: 384.695px 177.925px; transform: rotate(180deg);" class="animable"></rect></g><g id="el59lfkzc0eof"><rect x="397.76" y="166.83" width="5.75" height="21.45" style="fill: rgb(235, 235, 235); transform-origin: 400.635px 177.555px; transform: rotate(-167.47deg);" class="animable"></rect></g><g id="el5kcedpfjmgw"><rect x="423.4" y="162.72" width="2.87" height="25.93" style="fill: rgb(235, 235, 235); transform-origin: 424.835px 175.685px; transform: rotate(180deg);" class="animable"></rect></g><g id="elfd27po6qd8f"><rect x="389.22" y="162.72" width="2.87" height="25.93" style="fill: rgb(235, 235, 235); transform-origin: 390.655px 175.685px; transform: rotate(180deg);" class="animable"></rect></g><g id="elg4bdiajfm37"><rect x="329.32" y="169.09" width="28" height="19.33" style="fill: rgb(235, 235, 235); transform-origin: 343.32px 178.755px; transform: rotate(180deg);" class="animable"></rect></g><polygon points="53 266 53 383 59 383 59 278 165 278 165 383 172 383 172 266 53 266" style="fill: rgb(224, 224, 224); transform-origin: 112.5px 324.5px;" id="elywqvei7fo6f" class="animable"></polygon><polygon points="119 266 119 383 125 383 125 278 231 278 231 383 238 383 238 266 119 266" style="fill: rgb(245, 245, 245); transform-origin: 178.5px 324.5px;" id="elcs77umwsvvt" class="animable"></polygon><path d="M156.88,222.4c-1.34-2.2-3.54-.28-3.54-.28.31-4.23-3.57-7.11-3.57-7.11s4.51,0,5.14-4.31-1.57-2.3-3.64-2.33-4.23,6-1.5,9.4,2,9.2-4.3,14.77a12.36,12.36,0,0,0-3.29,5.13c.48-5.12.75-12.34-.76-17.15-2.56-8.19,2.32-10.39,3.73-14.48s-3.73-7.56-3.73-7.56,4.84-2.2,2.47-4.72-7.23-2.18-7.23,1.12,3.3,4.55,3.3,4.55,3.78,3.93,3.78,6-3.78,6.45-3.78,6.45,1.73-3.77-1.73-3.93-4.57,4.4-3.15,6.45,3.78.31,3.78.31a39.44,39.44,0,0,0,1.08,7.08c.35,1.18.19,5.8-.11,10.6a12,12,0,0,0-3.07-4.55c-6.29-5.57-7-11.37-4.3-14.77s.57-9.43-1.5-9.4-4.27-2-3.64,2.33,5.14,4.31,5.14,4.31-3.88,2.88-3.56,7.11c0,0-2.21-1.92-3.55.28-2.38,3.94,3.15,6.38,4.08,4.44,0,0,11.74,8.31,8.91,20.27l.66,1c-.09,1-.14,1.55-.14,1.55l.92-.39,1,1.54a36,36,0,0,0,.27,5.2l2.8-4.15c-2.83-12,8.91-20.27,8.91-20.27C153.73,228.78,159.27,226.34,156.88,222.4Z" style="fill: rgb(224, 224, 224); transform-origin: 141.117px 221.707px;" id="elm3aeqviw73d" class="animable"></path><polygon points="149.77 266 145.98 244.31 147.05 238 135.12 238 136.19 244.31 132.41 266 149.77 266" style="fill: rgb(235, 235, 235); transform-origin: 141.09px 252px;" id="elkzbcqaw2z8c" class="animable"></polygon></g><g id="freepik--Shadow--inject-2" class="animable" style="transform-origin: 250px 416.24px;"><ellipse id="freepik--path--inject-2" cx="250" cy="416.24" rx="193.89" ry="11.32" style="fill: rgb(245, 245, 245); transform-origin: 250px 416.24px;" class="animable"></ellipse></g><g id="freepik--Files--inject-2" class="animable" style="transform-origin: 182.884px 102.173px;"><g id="elp7sywrvl5z"><rect x="256.95" y="96.24" width="35.01" height="45.72" style="fill: rgb(64, 123, 255); transform-origin: 274.455px 119.1px; transform: rotate(28.37deg);" class="animable"></rect></g><g id="eleoqv575hisa"><rect x="256.95" y="96.24" width="35.01" height="45.72" style="fill: rgb(255, 255, 255); opacity: 0.6; isolation: isolate; transform-origin: 274.455px 119.1px; transform: rotate(28.37deg);" class="animable"></rect></g><g id="elhyxy6ma1og7"><rect x="269.37" y="104.54" width="24.56" height="2.47" style="fill: rgb(64, 123, 255); transform-origin: 281.65px 105.775px; transform: rotate(28.37deg);" class="animable"></rect></g><g id="elil9o059jicb"><rect x="267.32" y="108.35" width="24.56" height="2.47" style="fill: rgb(64, 123, 255); transform-origin: 279.6px 109.585px; transform: rotate(28.37deg);" class="animable"></rect></g><g id="elbnvxhqlhywf"><rect x="265.26" y="112.15" width="24.56" height="2.47" style="fill: rgb(64, 123, 255); transform-origin: 277.54px 113.385px; transform: rotate(28.37deg);" class="animable"></rect></g><g id="elfkgy000w67w"><rect x="263.2" y="115.96" width="24.56" height="2.47" style="fill: rgb(64, 123, 255); transform-origin: 275.48px 117.195px; transform: rotate(28.37deg);" class="animable"></rect></g><g id="el7bjgtxmhmsa"><rect x="261.15" y="119.76" width="24.56" height="2.47" style="fill: rgb(64, 123, 255); transform-origin: 273.43px 120.995px; transform: rotate(28.37deg);" class="animable"></rect></g><g id="el5ac1ilm13bl"><rect x="259.09" y="123.57" width="24.56" height="2.47" style="fill: rgb(64, 123, 255); transform-origin: 271.37px 124.805px; transform: rotate(28.37deg);" class="animable"></rect></g><g id="elz9s2211b9wc"><rect x="257.04" y="127.37" width="24.56" height="2.47" style="fill: rgb(64, 123, 255); transform-origin: 269.32px 128.605px; transform: rotate(28.37deg);" class="animable"></rect></g><g id="el9m53hi0zsu"><rect x="255.5" y="129.12" width="15.9" height="2.47" style="fill: rgb(64, 123, 255); transform-origin: 263.45px 130.355px; transform: rotate(28.37deg);" class="animable"></rect></g><path d="M218.89,107.59a22.15,22.15,0,1,1,24.29-19.78A22.18,22.18,0,0,1,218.89,107.59Z" style="fill: rgb(64, 123, 255); transform-origin: 221.145px 85.5537px;" id="elr98u7pax5j" class="animable"></path><g id="els9obtpppf5g"><circle cx="221.15" cy="85.55" r="20.21" style="fill: rgb(255, 255, 255); opacity: 0.3; transform-origin: 221.15px 85.55px; transform: rotate(-4.4deg);" class="animable"></circle></g><path d="M228,79c-2.33-1.65-5.58-7.29-5.58-7.32l-2.1,20.44c.05-.46-1.77-.93-3-1-2.93-.31-5.4,1.07-5.6,3s2,3.85,5,4.15,5.37-1.08,5.58-3.06c0-.3-.21-.62-.18-.89l1.61-15.75a13.26,13.26,0,0,0,4.34,3.29c2.21,1,3,4.07,3,4.07A7.92,7.92,0,0,0,228,79Z" style="fill: rgb(255, 255, 255); transform-origin: 221.402px 84.9955px;" id="el3aedhq4xe0r" class="animable"></path><g id="elm27idakfqoc"><ellipse cx="218.82" cy="80.9" rx="15.94" ry="13.21" style="fill: rgb(255, 255, 255); opacity: 0.5; transform-origin: 218.82px 80.9px; transform: rotate(-27.41deg);" class="animable"></ellipse></g><g id="elaovjxv8xe2r"><rect x="131.56" y="58.69" width="47.75" height="35.75" style="fill: rgb(64, 123, 255); transform-origin: 155.435px 76.565px; transform: rotate(-4.65deg);" class="animable"></rect></g><g id="eljbwohxlywns"><rect x="133.99" y="61" width="43" height="31" style="fill: rgb(64, 123, 255); transform-origin: 155.49px 76.5px; transform: rotate(-4.65deg);" class="animable"></rect></g><g id="elvderb7d7n4j"><rect x="133.99" y="61" width="43" height="31" style="fill: rgb(255, 255, 255); opacity: 0.5; transform-origin: 155.49px 76.5px; transform: rotate(-4.65deg);" class="animable"></rect></g><polygon points="177.84 86 178.18 90.2 135.32 93.69 134.1 78.67 142.31 70.21 156.48 81.94 163.02 76.31 177.84 86" style="fill: rgb(64, 123, 255); transform-origin: 156.14px 81.95px;" id="el9vgxt7eerqr" class="animable"></polygon><g id="elua01qeyvws"><polygon points="177.84 86 178.18 90.2 135.32 93.69 134.1 78.67 142.31 70.21 156.48 81.94 163.02 76.31 177.84 86" style="fill: rgb(255, 255, 255); opacity: 0.3; transform-origin: 156.14px 81.95px;" class="animable"></polygon></g><path d="M169.19,68a3.46,3.46,0,1,1-3.73-3.17A3.46,3.46,0,0,1,169.19,68Z" style="fill: rgb(64, 123, 255); transform-origin: 165.741px 68.2786px;" id="elkznlke4e39" class="animable"></path><g id="elcwov9scc1mt"><path d="M169.19,68a3.46,3.46,0,1,1-3.73-3.17A3.46,3.46,0,0,1,169.19,68Z" style="fill: rgb(255, 255, 255); opacity: 0.3; transform-origin: 165.741px 68.2786px;" class="animable"></path></g><path d="M86.39,98.87l-1.84-1.13a2.45,2.45,0,0,0-2.2-.19L74.18,101a2.14,2.14,0,0,0-1.31,1.66l-.3,2a2.08,2.08,0,0,1-1.3,1.65l-4.88,2a2.15,2.15,0,0,0-1.09,3l13,26.64a2.46,2.46,0,0,0,3.11,1.19L120.07,123a2.14,2.14,0,0,0,1.1-3l-13-26.63a2.46,2.46,0,0,0-3.11-1.2L88.59,99.06A2.45,2.45,0,0,1,86.39,98.87Z" style="fill: rgb(64, 123, 255); transform-origin: 93.2362px 115.656px;" id="elj23x5twtx4c" class="animable"></path><path d="M110,93.16,74.59,108a3.21,3.21,0,0,0-1.8,3.87l7.75,24.53A2.6,2.6,0,0,0,84.09,138l35.42-14.82a3.23,3.23,0,0,0,1.8-3.87l-7.76-24.53A2.59,2.59,0,0,0,110,93.16Z" style="fill: rgb(64, 123, 255); transform-origin: 97.0479px 115.579px;" id="elgd9mvpbd0rk" class="animable"></path><g id="elf42qerygizh"><path d="M110,93.16,74.59,108a3.21,3.21,0,0,0-1.8,3.87l7.75,24.53A2.6,2.6,0,0,0,84.09,138l35.42-14.82a3.23,3.23,0,0,0,1.8-3.87l-7.76-24.53A2.59,2.59,0,0,0,110,93.16Z" style="fill: rgb(255, 255, 255); opacity: 0.5; transform-origin: 97.0479px 115.579px;" class="animable"></path></g></g><g id="freepik--Cloud--inject-2" class="animable" style="transform-origin: 183.34px 172.499px;"><path d="M238.48,152a30.13,30.13,0,0,0,.66-6.28,29.82,29.82,0,0,0-29.82-29.82,30.36,30.36,0,0,0-5.51.51c-.76-.14-1.53,0-2.32-.09A34.92,34.92,0,0,0,169.5,96h-11a35,35,0,0,0-35.17,34.92c0,.26,0,.39,0,.65a29.44,29.44,0,0,0,5.4,58.43h108a19,19,0,0,0,1.73-38Z" style="fill: rgb(64, 123, 255); transform-origin: 177.809px 143.009px;" id="elh4jwpokd7m6" class="animable"></path><g id="elqlhfpw46anr"><path d="M238.48,152a30.13,30.13,0,0,0,.66-6.28,29.82,29.82,0,0,0-29.82-29.82,30.36,30.36,0,0,0-5.51.51c-.76-.14-1.53,0-2.32-.09A34.92,34.92,0,0,0,169.5,96h-11a35,35,0,0,0-35.17,34.92c0,.26,0,.39,0,.65a29.44,29.44,0,0,0,5.4,58.43h108a19,19,0,0,0,1.73-38Z" style="fill: rgb(255, 255, 255); opacity: 0.5; isolation: isolate; transform-origin: 177.809px 143.009px;" class="animable"></path></g><g id="elwd00xws68ip"><path d="M238.48,152a30.13,30.13,0,0,0,.66-6.28,29.82,29.82,0,0,0-29.82-29.82,30.36,30.36,0,0,0-5.51.51c-.76-.14-1.53,0-2.32-.09A34.92,34.92,0,0,0,169.5,96h0a35,35,0,0,0-35.17,34.92c0,.26,0,.39,0,.65a29.44,29.44,0,0,0,5.4,58.43h97a19,19,0,0,0,1.73-38Z" style="fill: rgb(255, 255, 255); opacity: 0.4; isolation: isolate; transform-origin: 183.309px 143.009px;" class="animable"></path></g><path d="M267.67,239H234a50.06,50.06,0,0,1-50-50V179H174v10a60.07,60.07,0,0,0,60,60h33.67Z" style="fill: rgb(64, 123, 255); transform-origin: 220.835px 214px;" id="elzep0dsomjvh" class="animable"></path><polygon points="178.88 172.34 170.21 181 187.54 181 178.88 172.34" style="fill: rgb(64, 123, 255); transform-origin: 178.875px 176.67px;" id="elyro3zg7omyd" class="animable"></polygon></g><g id="freepik--Stuff--inject-2" class="animable" style="transform-origin: 126.248px 369.952px;"><path d="M104.28,367.33l-6-18.33A26.16,26.16,0,0,1,120,343.17l5,17.16Z" style="fill: rgb(64, 123, 255); transform-origin: 111.64px 355.034px;" id="el2xbnruxf60d" class="animable"></path><g id="eloi60ckia768"><path d="M104.28,367.33l-6-18.33A26.16,26.16,0,0,1,120,343.17l5,17.16Z" style="fill: rgb(255, 255, 255); opacity: 0.7; isolation: isolate; transform-origin: 111.64px 355.034px;" class="animable"></path></g><g id="elr4fvdxkufw"><g style="opacity: 0.2; isolation: isolate; transform-origin: 111.655px 355.353px;" class="animable"><path d="M101.14,353.33a16.21,16.21,0,0,1,2.37-2.17,21.28,21.28,0,0,1,2.78-1.82c.53-.28,1.09-.58,1.68-.84s1.18-.51,1.81-.7a17.92,17.92,0,0,1,1.87-.52l.93-.21.93-.11c.3,0,.6-.09.89-.11h.86a9,9,0,0,1,1.58.05c.48.05.92.09,1.31.16l1,.23.85.22s-.33,0-.88,0l-1-.05-1.3,0a13.89,13.89,0,0,0-1.51.12,14.68,14.68,0,0,0-1.67.25l-.88.16-.88.23a16.45,16.45,0,0,0-1.78.53c-.61.16-1.18.43-1.76.64s-1.12.48-1.65.73-1,.5-1.52.77-.93.5-1.34.74c-.82.48-1.5.89-2,1.21Z" id="elthwl5ztysk" class="animable" style="transform-origin: 110.57px 350.083px;"></path><path d="M101.67,355s.23-.2.67-.51,1.06-.76,1.85-1.22a30.1,30.1,0,0,1,2.77-1.48c1-.5,2.19-.94,3.34-1.36.59-.17,1.18-.37,1.76-.53s1.17-.3,1.74-.39,1.12-.22,1.65-.26,1-.11,1.49-.12a17.22,17.22,0,0,1,2.22.08l.84.1s-.31.05-.84.1c-.26,0-.58,0-.94.1l-1.22.19c-.45.07-.92.2-1.43.29s-1,.26-1.57.38-1.1.32-1.67.46-1.13.37-1.7.55c-2.28.76-4.51,1.68-6.18,2.39-.83.37-1.54.65-2,.88Z" id="eltixc9cwl8or" class="animable" style="transform-origin: 110.835px 352.061px;"></path><path d="M103.08,358.42a7,7,0,0,1,.62-.55c.4-.33,1-.8,1.72-1.31a26,26,0,0,1,2.63-1.59,27.87,27.87,0,0,1,3.21-1.47,23.91,23.91,0,0,1,3.4-1,14.11,14.11,0,0,1,1.62-.24c.52,0,1-.11,1.46-.1l1.23.05c.37,0,.68.09.94.12l.81.14s-.3,0-.82.05c-.26,0-.57,0-.92.06l-1.2.16c-.43.05-.89.17-1.39.25s-1,.26-1.53.37-1.06.33-1.61.48-1.09.38-1.64.57-1.09.41-1.62.64-1.06.43-1.55.67c-1,.45-1.93.91-2.72,1.3s-1.46.73-1.91,1Z" id="el10uyoo3k2cu" class="animable" style="transform-origin: 111.9px 355.29px;"></path><path d="M103.92,360.75a16.32,16.32,0,0,1,2.25-1.86,22.54,22.54,0,0,1,2.58-1.54c.5-.24,1-.48,1.55-.7s1.09-.43,1.66-.59a17.16,17.16,0,0,1,1.71-.44,12.88,12.88,0,0,1,1.69-.27,11,11,0,0,1,1.6-.09,9.3,9.3,0,0,1,1.42.06l1.2.16.9.22c.49.13.77.22.77.22s-.3,0-.8,0l-.91,0-1.17,0A11.28,11.28,0,0,0,117,356a14.55,14.55,0,0,0-1.52.21c-.52.07-1,.22-1.6.34s-1.08.29-1.62.45a31.35,31.35,0,0,0-3.14,1.14c-1,.42-1.89.85-2.66,1.23s-1.41.72-1.85,1Z" id="elftl3wrulj76" class="animable" style="transform-origin: 112.585px 358.002px;"></path><path d="M105.08,363.87a6.85,6.85,0,0,1,.59-.55c.39-.33.94-.8,1.65-1.31a24.45,24.45,0,0,1,2.53-1.59c.47-.27,1-.53,1.5-.77s1.07-.45,1.61-.69,1.11-.38,1.66-.55,1.11-.29,1.66-.39a15.44,15.44,0,0,1,1.57-.21c.51,0,1-.08,1.43-.06l1.2.08c.35,0,.66.12.91.16l.78.18-.8,0c-.25,0-.56,0-.9,0l-1.16.11c-.42.05-.88.16-1.35.22s-1,.24-1.49.34-1,.32-1.57.46-1.06.36-1.59.56-1.06.4-1.57.63-1,.43-1.5.67c-1,.45-1.85.91-2.62,1.3s-1.41.72-1.84,1Z" id="ellx85mao4s5" class="animable" style="transform-origin: 113.625px 360.808px;"></path></g></g><path d="M101.68,367.46,114,358.12a1.33,1.33,0,0,1,1.07-.25l14.07,2.67a1.35,1.35,0,0,1,.39,2.52l-11.61,6.29a1.46,1.46,0,0,1-.61.16l-14.8.38A1.35,1.35,0,0,1,101.68,367.46Z" style="fill: rgb(64, 123, 255); transform-origin: 115.693px 363.867px;" id="el953mdzxaisg" class="animable"></path><path d="M123.89,373s18.94-45.83,22.28-48.67,24.5,9.47,24.5,9.47l-18.84,48.37Z" style="fill: rgb(64, 123, 255); transform-origin: 147.28px 353.037px;" id="elq4ychvw13zk" class="animable"></path><g id="elvtxm2bmwza8"><path d="M129.33,372.67s18.14-43.78,20.84-45.67,18.16,6.17,18.16,6.17-16.11-9.84-21.05-8.17-21.78,46.67-21.78,46.67Z" style="opacity: 0.2; isolation: isolate; transform-origin: 146.915px 348.74px;" class="animable"></path></g><rect x="87.06" y="368.5" width="80.44" height="47.5" style="fill: rgb(38, 50, 56); transform-origin: 127.28px 392.25px;" id="ely5jmld4anl" class="animable"></rect><g id="el81drfidu19i"><rect x="87.06" y="368.5" width="80.44" height="47.5" style="fill: rgb(255, 255, 255); opacity: 0.2; isolation: isolate; transform-origin: 127.28px 392.25px;" class="animable"></rect></g><g id="elvptr2n1egho"><rect x="117.56" y="368.5" width="49.94" height="47.5" style="fill: rgb(255, 255, 255); opacity: 0.4; isolation: isolate; transform-origin: 142.53px 392.25px;" class="animable"></rect></g><polygon points="117.56 369 136.5 353.75 178.75 356.63 167.5 369 117.56 369" style="fill: rgb(38, 50, 56); transform-origin: 148.155px 361.375px;" id="eljesgpfxyf8" class="animable"></polygon><polygon points="117.56 369 103.25 352.5 73 355.75 87.06 368.5 117.56 369" style="fill: rgb(38, 50, 56); transform-origin: 95.28px 360.75px;" id="elia19ngxmc5s" class="animable"></polygon><g id="el1zlc94w4ukn"><polygon points="117.56 369 103.25 352.5 73 355.75 87.06 368.5 117.56 369" style="fill: rgb(255, 255, 255); opacity: 0.1; isolation: isolate; transform-origin: 95.28px 360.75px;" class="animable"></polygon></g><g id="el19rk02k0cpm"><polygon points="117.56 369 136.5 353.75 178.75 356.63 167.5 369 117.56 369" style="fill: rgb(255, 255, 255); opacity: 0.4; isolation: isolate; transform-origin: 148.155px 361.375px;" class="animable"></polygon></g><path d="M152.27,390.36a12.78,12.78,0,1,0,12.78,12.78A12.78,12.78,0,0,0,152.27,390.36Zm0,17.87a5.1,5.1,0,1,1,5.1-5.09A5.09,5.09,0,0,1,152.27,408.23Z" style="fill: rgb(64, 123, 255); transform-origin: 152.27px 403.14px;" id="eluhgdyfgbjc" class="animable"></path><g id="elclh9kje1ro"><path d="M163.79,397.59a12.38,12.38,0,0,0-.78-1.37,11.39,11.39,0,0,0-1.28-1.67,12.64,12.64,0,0,0-8.47-4.14,8.21,8.21,0,0,0-1-.05,12.79,12.79,0,0,0-12.39,15.88,10.48,10.48,0,0,0,.46,1.44,11.51,11.51,0,0,0,1,2,12.75,12.75,0,0,0,9.84,6.15c.37,0,.74.05,1.11.05a12.79,12.79,0,0,0,11.52-18.32Zm-11.52,10.64a3.87,3.87,0,0,1-.48,0,5.07,5.07,0,0,1-4.23-3.13,5.53,5.53,0,0,1-.28-.9,5.41,5.41,0,0,1-.07-.58,3.4,3.4,0,0,1,0-.45,5.09,5.09,0,0,1,5.09-5.1,2.17,2.17,0,0,1,.36,0,5.06,5.06,0,0,1,2.87,1.12,4.85,4.85,0,0,1,.56.55,3.9,3.9,0,0,1,.4.51,5,5,0,0,1,.91,2.9A5.09,5.09,0,0,1,152.27,408.23Z" style="fill: rgb(255, 255, 255); opacity: 0.7; isolation: isolate; transform-origin: 152.274px 403.12px;" class="animable"></path></g><g id="el1nn0a8o398e"><path d="M151.79,408.2l-.63,7.66a12.75,12.75,0,0,1-9.84-6.15l6.24-4.64A5.07,5.07,0,0,0,151.79,408.2Z" style="fill: rgb(255, 255, 255); opacity: 0.2; transform-origin: 146.555px 410.465px;" class="animable"></path></g><g id="ele9nxa4dsnjj"><path d="M161.73,394.55l-6.23,4.63a5.06,5.06,0,0,0-2.87-1.12l.63-7.65A12.64,12.64,0,0,1,161.73,394.55Z" style="fill: rgb(255, 255, 255); opacity: 0.2; transform-origin: 157.18px 394.795px;" class="animable"></path></g><g id="el062gk2cssbxx"><path d="M147.28,404.17l-6.94,3.51a10.48,10.48,0,0,1-.46-1.44l7.33-2.65A5.41,5.41,0,0,0,147.28,404.17Z" style="fill: rgb(255, 255, 255); opacity: 0.2; transform-origin: 143.58px 405.635px;" class="animable"></path></g><g id="elbpjff3nfeu"><path d="M163.79,397.59l-7.33,2.65a3.9,3.9,0,0,0-.4-.51l6.95-3.51A12.38,12.38,0,0,1,163.79,397.59Z" style="fill: rgb(255, 255, 255); opacity: 0.2; transform-origin: 159.925px 398.23px;" class="animable"></path></g><path d="M161.6,393.91c-7,0-10.83,4.93-8.43,11s10.05,11,17.1,11,10.84-4.92,8.44-11S168.66,393.91,161.6,393.91Zm6.07,15.39a7.76,7.76,0,0,1-6.82-4.39c-1-2.42.55-4.39,3.36-4.39a7.78,7.78,0,0,1,6.82,4.39C172,407.33,170.48,409.3,167.67,409.3Z" style="fill: rgb(64, 123, 255); transform-origin: 165.942px 404.91px;" id="el9krcrgkk9d6" class="animable"></path><g id="elfekxqrq0hr9"><path d="M175.57,400.13c-.39-.4-.8-.8-1.24-1.18a17.8,17.8,0,0,0-1.85-1.43,19.87,19.87,0,0,0-9.87-3.57c-.35,0-.68,0-1,0-7,0-10.83,4.92-8.43,11a13,13,0,0,0,1.43,2.67,12,12,0,0,0,1,1.24,16.14,16.14,0,0,0,1.67,1.75,20.4,20.4,0,0,0,11.92,5.3c.38,0,.76,0,1.13,0,7.06,0,10.84-4.93,8.45-11A15.14,15.14,0,0,0,175.57,400.13Zm-7.91,9.17-.49,0a8.16,8.16,0,0,1-5.29-2.69,6.06,6.06,0,0,1-.58-.78,4.82,4.82,0,0,1-.27-.5,3.39,3.39,0,0,1-.18-.39c-1-2.43.55-4.39,3.36-4.39a2.17,2.17,0,0,1,.36,0,7.69,7.69,0,0,1,3.25,1,7.34,7.34,0,0,1,.75.48,4.81,4.81,0,0,1,.57.44,6.28,6.28,0,0,1,1.9,2.49C172,407.33,170.48,409.3,167.66,409.3Z" style="fill: rgb(255, 255, 255); opacity: 0.1; isolation: isolate; transform-origin: 165.98px 404.93px;" class="animable"></path></g><g id="el08spovmzpekk"><path d="M167.17,409.27l2,6.6a20.4,20.4,0,0,1-11.92-5.3l4.66-4A8.16,8.16,0,0,0,167.17,409.27Z" style="fill: rgb(255, 255, 255); opacity: 0.2; transform-origin: 163.21px 411.22px;" class="animable"></path></g><g id="el4n2lh2seqla"><path d="M172.48,397.52l-4.66,4a7.69,7.69,0,0,0-3.25-1l-2-6.59A19.87,19.87,0,0,1,172.48,397.52Z" style="fill: rgb(255, 255, 255); opacity: 0.2; transform-origin: 167.525px 397.725px;" class="animable"></path></g><g id="el48x6z99058n"><path d="M161.3,405.8l-5.75,3a12,12,0,0,1-1-1.24L161,405.3A4.82,4.82,0,0,0,161.3,405.8Z" style="fill: rgb(255, 255, 255); opacity: 0.2; transform-origin: 157.925px 407.05px;" class="animable"></path></g><g id="elkaxydl44ks"><path d="M175.57,400.13l-6.43,2.29a4.81,4.81,0,0,0-.57-.44l5.76-3C174.77,399.33,175.18,399.73,175.57,400.13Z" style="fill: rgb(255, 255, 255); opacity: 0.2; transform-origin: 172.07px 400.7px;" class="animable"></path></g></g><g id="freepik--Chair--inject-2" class="animable" style="transform-origin: 377.105px 369.155px;"><polygon points="372.4 330 372.76 345.57 374.4 416 379.81 416 381.44 345.57 381.8 330 372.4 330" style="fill: rgb(64, 123, 255); transform-origin: 377.1px 373px;" id="elbw87q2jyp2f" class="animable"></polygon><g id="elad6i765rut"><polygon points="372.4 330 372.76 345.57 374.4 416 379.81 416 381.44 345.57 381.8 330 372.4 330" style="fill: rgb(255, 255, 255); opacity: 0.4; isolation: isolate; transform-origin: 377.1px 373px;" class="animable"></polygon></g><g id="eltniylh600zr"><polygon points="372.4 330 372.76 346 381.44 346 381.8 330 372.4 330" style="opacity: 0.2; isolation: isolate; transform-origin: 377.1px 338px;" class="animable"></polygon></g><polygon points="343.02 415.75 348.02 331.1 356.19 331.1 349.19 415.75 343.02 415.75" style="fill: rgb(64, 123, 255); transform-origin: 349.605px 373.425px;" id="elxdxfzhsd71g" class="animable"></polygon><g id="elh15himnoexd"><polygon points="349.21 415.75 343.03 415.75 347.57 338.7 348.02 331 356.19 331 355.56 338.7 349.21 415.75" style="fill: rgb(255, 255, 255); opacity: 0.5; isolation: isolate; transform-origin: 349.61px 373.375px;" class="animable"></polygon></g><g id="elk0g3pvjire"><polygon points="356.19 331 355.56 339 347.57 339 348.02 331 356.19 331" style="opacity: 0.2; isolation: isolate; transform-origin: 351.88px 335px;" class="animable"></polygon></g><polygon points="405.02 415.75 398.02 331.1 406.19 331.1 411.19 415.75 405.02 415.75" style="fill: rgb(64, 123, 255); transform-origin: 404.605px 373.425px;" id="el22gl8itqhmj" class="animable"></polygon><g id="el2axjqizvw7j"><polygon points="405 415.75 398.65 338.7 398.02 331 406.19 331 406.64 338.7 411.18 415.75 405 415.75" style="fill: rgb(255, 255, 255); opacity: 0.5; isolation: isolate; transform-origin: 404.6px 373.375px;" class="animable"></polygon></g><g id="elf8atr85jlkn"><polygon points="398.02 331 398.65 339 406.64 339 406.19 331 398.02 331" style="opacity: 0.2; isolation: isolate; transform-origin: 402.33px 335px;" class="animable"></polygon></g><g id="elsi26rj4fog"><path d="M343.65,322.33h66.92a0,0,0,0,1,0,0V329a5,5,0,0,1-5,5H348.65a5,5,0,0,1-5-5v-6.69A0,0,0,0,1,343.65,322.33Z" style="fill: rgb(64, 123, 255); transform-origin: 377.11px 328.155px; transform: rotate(180deg);" class="animable"></path></g><g id="eli3ecsq6gk3"><rect x="340.44" y="328.18" width="73.33" height="5.84" rx="2.01" style="fill: rgb(64, 123, 255); transform-origin: 377.105px 331.1px; transform: rotate(180deg);" class="animable"></rect></g><g id="elxcm9b3ro4p"><rect x="340.44" y="328.18" width="73.33" height="5.84" rx="2.01" style="fill: rgb(255, 255, 255); opacity: 0.6; isolation: isolate; transform-origin: 377.105px 331.1px; transform: rotate(180deg);" class="animable"></rect></g></g><g id="freepik--Character--inject-2" class="animable" style="transform-origin: 331.173px 286.096px;"><g id="freepik--group--inject-2" class="animable" style="transform-origin: 331.173px 286.096px;"><path d="M353.09,227.5s-.28.76-.79,2-1.29,3.13-2.24,5.19c-2.3,5-5.64,11.36-9.13,14.79a9.4,9.4,0,0,1-3.1,2.16c-3.72,1.43-13.05,1.69-21.38,1.61s-15.45-.5-15.45-.5v-6.31l27.39-7.3s14.44-26.06,23-29.92Z" style="fill: rgb(38, 50, 56); transform-origin: 327.045px 231.242px;" id="elirc4jh3yu8i" class="animable"></path><g id="elhyhx0tj02de"><path d="M352.3,229.51c-.52,1.3-1.29,3.13-2.24,5.19-2.3,5-5.64,11.36-9.13,14.79-3.55-13.08,9.58-25.53,9.58-25.53Z" style="opacity: 0.2; isolation: isolate; transform-origin: 346.311px 236.725px;" class="animable"></path></g><polygon points="348.76 408.78 340.79 407.69 339.69 388.75 347.64 389.85 348.76 408.78" style="fill: rgb(235, 179, 118); transform-origin: 344.225px 398.765px;" id="elf34mmbs1fo9" class="animable"></polygon><g id="eltrvbc6fhqeo"><polygon points="347.64 389.85 339.69 388.76 340.32 399.58 348.27 400.28 347.64 389.85" style="opacity: 0.2; isolation: isolate; transform-origin: 343.98px 394.52px;" class="animable"></polygon></g><path d="M348.44,297.46l1.94-12.18L395,282.61s4.75,25.34,1.1,32.09c-6.51,12.05-41.61,6-51.89,7.15C350.39,347,349.79,396,349.79,396l-14.67,1.12s-11.28-52.87-13.57-78C320,302.2,334.06,302.62,348.44,297.46Z" style="fill: rgb(64, 123, 255); transform-origin: 359.456px 339.865px;" id="el7r6ot0tz2dm" class="animable"></path><polygon points="351.51 396.73 333.88 397.88 332.37 390.33 351.74 389.44 351.51 396.73" style="fill: rgb(64, 123, 255); transform-origin: 342.055px 393.66px;" id="el2ttctbhs2ed" class="animable"></polygon><polygon points="330.38 401.71 322.36 402.3 317.34 384.01 325.35 383.43 330.38 401.71" style="fill: rgb(235, 179, 118); transform-origin: 323.86px 392.865px;" id="elep2w8bfo4tl" class="animable"></polygon><path d="M321.28,402.57l-.14,0h0c0-.12-.41-2.37-1.38-2.9a.9.9,0,0,0-.8,0,.7.7,0,0,0-.49.73,3,3,0,0,0,1.18,1.63,3.21,3.21,0,0,0-2.24.06.71.71,0,0,0-.28.63,1,1,0,0,0,.51.94,2.15,2.15,0,0,0,1.56,0,10,10,0,0,0,2-.84h.07s0,0,0-.06A.16.16,0,0,0,321.28,402.57Zm-2.41-2.24c0-.11,0-.25.27-.35l.09,0a.5.5,0,0,1,.43.05c.58.31,1,1.53,1.17,2.26l-.18-.05C319.86,401.77,318.94,400.87,318.87,400.33Zm-1.05,2.94a.71.71,0,0,1-.31-.61.36.36,0,0,1,.13-.31c.46-.34,1.92-.05,3,.27C319.31,403.28,318.29,403.52,317.82,403.27Z" style="fill: rgb(64, 123, 255); transform-origin: 319.217px 401.691px;" id="el4sjsalpibai" class="animable"></path><g id="elf8bh4g06zxu"><polygon points="325.35 383.43 317.34 384.02 320.21 394.47 328.13 393.5 325.35 383.43" style="opacity: 0.2; isolation: isolate; transform-origin: 322.735px 388.95px;" class="animable"></polygon></g><path d="M314.62,393.18,328.74,389s-8.43-47.58-17-64.08c.64-.21,1.49-.48,2.54-.79,1.89-.57,4.4-1.28,7.35-2.1,20.52-5.69,62.11-16.36,62.11-16.36l-19-17.73s-75.68,11.54-77.25,31.48C286.76,329,314.62,393.18,314.62,393.18Z" style="fill: rgb(64, 123, 255); transform-origin: 335.608px 340.56px;" id="eldv8ndzpdcf" class="animable"></path><polygon points="330.56 389.34 313.56 394.15 310.51 387.08 329.27 382.17 330.56 389.34" style="fill: rgb(64, 123, 255); transform-origin: 320.535px 388.16px;" id="el5k66oirbiwr" class="animable"></polygon><g id="elq0fj5e6owd"><path d="M314.3,324.16c1.89-.57,4.4-1.28,7.35-2.1-.59-4.84-.6-10.39,1.73-13.22,4.63-5.64,16.54-8.95,23.32-10.15,5.67-1,24.72-3,24.72-3s-24.72-2.37-50,5C308.94,304.35,311.37,316.56,314.3,324.16Z" style="opacity: 0.2; isolation: isolate; transform-origin: 341.68px 309.743px;" class="animable"></path></g><path d="M397.52,295.34c3-2.29.12-23.59,1.65-44.54,2.33-31.9,0-42.15-2.35-43.14a90.4,90.4,0,0,0-13.13-1.3,168.12,168.12,0,0,0-19.31.42,84.74,84.74,0,0,0-13,2.64s-10.52,33.5-3.8,81.75Z" style="fill: rgb(38, 50, 56); transform-origin: 372.736px 250.796px;" id="eljymi8z3g6g" class="animable"></path><g id="el645y1mx8jah"><path d="M400,234.38s0,0,0,0c-.13,4.69-.41,10.13-.87,16.41-1.53,20.95,1.33,42.25-1.65,44.54l-49.95-4.17a225.22,225.22,0,0,1-.05-63.15c4.06-6.34,11.94-13.57,15.56-16.74a7.52,7.52,0,0,0,4.6,2.39c3.89.76,8.33-1,12-3.24,2.9,2.89,8.4,8.74,10.81,13.67a15.72,15.72,0,0,1,.67,1.57c1.53,4.28,6.2-1,8.58-7.88A149,149,0,0,1,400,234.38Z" style="fill: rgb(255, 255, 255); opacity: 0.8; transform-origin: 372.693px 252.875px;" class="animable"></path></g><path d="M381.32,184.71c-1.09,6.24-2.06,17.64,2.37,21.7a20,20,0,0,1-14,6.36c-8,.35-5.3-6-5.3-6,6.9-1.8,6.6-6.94,5.29-11.74Z" style="fill: rgb(235, 179, 118); transform-origin: 373.821px 198.747px;" id="elr25c0qgcj6" class="animable"></path><g id="elct46rilcn8c"><path d="M376.57,188.94l-6.89,6.14a19.78,19.78,0,0,1,.67,3.41c2.64-.43,6.21-3.42,6.44-6.2A9.22,9.22,0,0,0,376.57,188.94Z" style="opacity: 0.2; isolation: isolate; transform-origin: 373.267px 193.715px;" class="animable"></path></g><path d="M366.19,168.56c3.45,2.34,1.88,6.3-5.92,12.51C357.11,177,356.58,169,359.1,167S363.19,166.53,366.19,168.56Z" style="fill: rgb(38, 50, 56); transform-origin: 362.715px 173.567px;" id="el9hu28mftjw" class="animable"></path><path d="M381,175c-.37,8.43-.17,13.37-4.34,17.77-6.28,6.61-16.74,2.93-18.89-5.44-1.92-7.52-1-20,7.19-23.53A11.49,11.49,0,0,1,381,175Z" style="fill: rgb(235, 179, 118); transform-origin: 368.971px 179.511px;" id="elolgcmwdhwhg" class="animable"></path><path d="M368.49,177.5c0,.69-.34,1.25-.79,1.26s-.81-.54-.82-1.23.33-1.24.78-1.25S368.43,176.83,368.49,177.5Z" style="fill: rgb(38, 50, 56); transform-origin: 367.685px 177.52px;" id="elwbmbwj4qj0h" class="animable"></path><path d="M360.7,177.65c0,.68-.34,1.24-.79,1.25s-.82-.53-.83-1.23.34-1.25.79-1.25S360.69,177,360.7,177.65Z" style="fill: rgb(38, 50, 56); transform-origin: 359.89px 177.66px;" id="elw3o80lx4j8" class="animable"></path><path d="M363.25,177.93a24.39,24.39,0,0,1-3.17,5.91,4,4,0,0,0,3.28.56Z" style="fill: rgb(213, 135, 69); transform-origin: 361.72px 181.232px;" id="el6zt4ii6kf2t" class="animable"></path><path d="M370.58,175a.36.36,0,0,0,.25-.06.4.4,0,0,0,.08-.56,4,4,0,0,0-3.31-1.61.38.38,0,0,0-.36.41v0a.41.41,0,0,0,.43.36h0a3.18,3.18,0,0,1,2.6,1.3A.44.44,0,0,0,370.58,175Z" style="fill: rgb(38, 50, 56); transform-origin: 369.114px 173.886px;" id="eloq8jkwgqbu" class="animable"></path><path d="M357.11,175.08a.41.41,0,0,0,.37-.23,3.17,3.17,0,0,1,2.23-1.86.41.41,0,0,0,.34-.46.4.4,0,0,0-.45-.34,4,4,0,0,0-2.85,2.32.4.4,0,0,0,.19.53h0A.32.32,0,0,0,357.11,175.08Z" style="fill: rgb(38, 50, 56); transform-origin: 358.383px 173.633px;" id="elhn9wrzg3udj" class="animable"></path><path d="M377.54,167.58c-3.91,1.42-3.35,5.65,2.69,13.57,4.08-3.21,6.55-10.82,4.58-13.37S381,166.35,377.54,167.58Z" style="fill: rgb(38, 50, 56); transform-origin: 380.277px 173.696px;" id="el7ft08lxqo47" class="animable"></path><path d="M385.15,181.65a8,8,0,0,1-3.73,4.86c-2.45,1.38-4.34-.65-4.23-3.3.11-2.4,1.51-6,4.24-6.3S385.81,179.13,385.15,181.65Z" style="fill: rgb(235, 179, 118); transform-origin: 381.24px 181.921px;" id="elg4q33vu3fpt" class="animable"></path><path d="M369.68,185.79a5.88,5.88,0,0,1-5.54,2.63" style="fill: none; stroke: rgb(38, 50, 56); stroke-linecap: round; stroke-linejoin: round; stroke-width: 0.526291px; transform-origin: 366.91px 187.121px;" id="el5n4y7uq4d2x" class="animable"></path><path d="M369,166.24s1.26,8.44,9.39,9,9.87-4.49,9.87-4.49a15.54,15.54,0,0,1-2,.16s2.38-4.09,0-8-10.48-8.09-16.49-6a14.27,14.27,0,0,0-11.38,1.1c-5.63,3.27-4.63,10.4-4.63,10.4s-.25-4.33,2.38-5.54c0,0-3.25,8.91,1.62,11.29C357.75,174.13,358.23,165.36,369,166.24Z" style="fill: rgb(38, 50, 56); transform-origin: 370.976px 165.744px;" id="eldwcx16az00j" class="animable"></path><path d="M355.17,246s-29-.66-30.64-.82-8.51-4-10-4.21-5.38,6-5.87,7.44,11,5.34,12.11,5.17a20.69,20.69,0,0,0,3.73-1.39l29.6,3.81Z" style="fill: rgb(235, 179, 118); transform-origin: 331.907px 248.482px;" id="el7d61avepl88" class="animable"></path><path d="M271,252v2.65c0,.79,1.36,1.35,2.15,1.35h61.79c.8,0,2.06-.56,2.06-1.35V252Z" style="fill: rgb(38, 50, 56); transform-origin: 304px 254px;" id="el3pqdjgzq8mk" class="animable"></path><g id="el1euxdbwgh8a"><path d="M271,252v2.65c0,.79,1.36,1.35,2.15,1.35h61.79c.8,0,2.06-.56,2.06-1.35V252Z" style="fill: rgb(255, 255, 255); opacity: 0.6; isolation: isolate; transform-origin: 304px 254px;" class="animable"></path></g><g id="el90b748ac1r4"><path d="M271,252v2.65c0,.79,1.36,1.35,2.15,1.35H313.9c.8,0,2.1-.56,2.1-1.35V252Z" style="opacity: 0.2; isolation: isolate; transform-origin: 293.5px 254px;" class="animable"></path></g><path d="M261.09,219.51,268.45,253a2.61,2.61,0,0,0,2.39,2H311a1.74,1.74,0,0,0,1.51-2.24l-7.35-33.12a2.3,2.3,0,0,0-2.39-1.64H262.61C261.53,218,260.85,218.42,261.09,219.51Z" style="fill: rgb(38, 50, 56); transform-origin: 286.814px 236.496px;" id="elydmif5hcmvb" class="animable"></path><g id="elpfc4rvz8ni"><path d="M261.09,219.51,268.45,253a2.61,2.61,0,0,0,2.39,2H311a1.74,1.74,0,0,0,1.51-2.24l-7.35-33.12a2.3,2.3,0,0,0-2.39-1.64H262.61C261.53,218,260.85,218.42,261.09,219.51Z" style="fill: rgb(255, 255, 255); opacity: 0.6; isolation: isolate; transform-origin: 286.814px 236.496px;" class="animable"></path></g><g id="elu1lsj2hu1mn"><path d="M261.09,219.51,268.45,253a2.61,2.61,0,0,0,2.39,2h38.81a1.75,1.75,0,0,0,1.52-2.24l-7.35-33.12a2.3,2.3,0,0,0-2.39-1.64H262.61C261.53,218,260.85,218.42,261.09,219.51Z" style="fill: rgb(255, 255, 255); opacity: 0.4; isolation: isolate; transform-origin: 286.142px 236.496px;" class="animable"></path></g><g id="el8nachmig9ol"><path d="M284.73,241c-1.87,0-3.79-2-4.28-4.48S281.09,232,283,232a2.91,2.91,0,0,1,1,.2,5.74,5.74,0,0,0,3.19,4.09,1.46,1.46,0,0,1,.05.2C287.74,239,286.61,241,284.73,241Z" style="opacity: 0.2; isolation: isolate; transform-origin: 283.847px 236.5px;" class="animable"></path></g><g id="elyi573ml6zf"><path d="M400,234.38s0,0,0,0c-4.31,7-10.34,14.45-16.35,14.1-6.29-.37.05-13.21,6.81-24.39a15.72,15.72,0,0,1,.67,1.57c1.53,4.28,6.2-1,8.58-7.88A149,149,0,0,1,400,234.38Z" style="opacity: 0.2; isolation: isolate; transform-origin: 390.588px 233.136px;" class="animable"></path></g><path d="M396.82,207.66c14.83,5.34-11.2,45.5-19.29,49.64s-29.35-.63-29.35-.63l1.32-12.41s16.83,1.14,20.18.29,11.31-18,15.89-26.05A25.84,25.84,0,0,1,396.82,207.66Z" style="fill: rgb(38, 50, 56); transform-origin: 374.742px 233.325px;" id="el02fsx6gu4wfb" class="animable"></path><g id="el9xop6hhjbrl"><polygon points="351.51 396.73 333.88 397.88 332.37 390.33 351.74 389.44 351.51 396.73" style="fill: rgb(255, 255, 255); opacity: 0.2; transform-origin: 342.055px 393.66px;" class="animable"></polygon></g><g id="elrvhq4tokt4l"><polygon points="330.56 389.34 313.56 394.15 310.51 387.08 329.27 382.17 330.56 389.34" style="fill: rgb(255, 255, 255); opacity: 0.2; transform-origin: 320.535px 388.16px;" class="animable"></polygon></g><path d="M321.58,401.48l8.68-2.42a.58.58,0,0,1,.72.36h0l2.35,6.76a1.43,1.43,0,0,1-1,1.75c-3.05.79-4.54,1-8.37,2.06-2.35.65-6.93,2.15-10.28,2.53s-3.63-2.94-2.25-3.39c3.28-1.1,7.21-4.52,8.91-6.84A2.27,2.27,0,0,1,321.58,401.48Z" style="fill: rgb(38, 50, 56); transform-origin: 322.015px 405.792px;" id="elwaqrw7evc" class="animable"></path><path d="M340,407.7h0c0-.14-.14-2.41-1-3.13a1.16,1.16,0,0,0-.9-.21.77.77,0,0,0-.68.6,2.89,2.89,0,0,0,.79,1.84,3.31,3.31,0,0,0-2.22-.41.74.74,0,0,0-.41.56,1,1,0,0,0,.3,1,2.13,2.13,0,0,0,1.52.3,9.31,9.31,0,0,0,2.1-.42.08.08,0,0,0,.07,0l0-.06s.19,0,.2-.07.17,0,.17,0ZM337.79,405c0-.11.07-.25.33-.3h.09a.51.51,0,0,1,.41.15c.51.42.65,1.69.68,2.45l-.16-.09A3.78,3.78,0,0,1,337.79,405Zm-1.64,2.65A.7.7,0,0,1,336,407a.33.33,0,0,1,.2-.27c.51-.24,1.88.35,2.85.88C337.61,408,336.55,408,336.15,407.69Z" style="fill: rgb(64, 123, 255); transform-origin: 337.773px 406.312px;" id="el7scp0kgdrfi" class="animable"></path><path d="M340.19,406.73l9-.56a.56.56,0,0,1,.63.5h0l.88,7.1a1.4,1.4,0,0,1-1.31,1.5c-3.14.15-4.65.06-8.61.28-2.43.14-7.22.66-10.58.33s-2.94-3.63-1.49-3.79c3.43-.39,8-2.91,10.13-4.83A2.24,2.24,0,0,1,340.19,406.73Z" style="fill: rgb(38, 50, 56); transform-origin: 339.166px 411.077px;" id="elx8kfwm9ler" class="animable"></path></g></g><g id="freepik--Table--inject-2" class="animable" style="transform-origin: 303.17px 335.795px;"><polygon points="300.11 416 306.23 416 307.24 262.75 299.11 262.75 300.11 416" style="fill: rgb(64, 123, 255); transform-origin: 303.175px 339.375px;" id="elcfqhdc3ls8p" class="animable"></polygon><g id="ela2qomargde9"><polygon points="299.1 263 299.26 287.73 300.1 416 306.23 416 307.07 287.73 307.23 263 299.1 263" style="fill: rgb(255, 255, 255); opacity: 0.4; isolation: isolate; transform-origin: 303.165px 339.5px;" class="animable"></polygon></g><g id="el7iww8h3dkbf"><polygon points="299.1 263 299.26 288 307.07 288 307.23 263 299.1 263" style="opacity: 0.2; isolation: isolate; transform-origin: 303.165px 275.5px;" class="animable"></polygon></g><polygon points="235.07 416 241.19 416 252.2 262.75 244.07 262.75 235.07 416" style="fill: rgb(64, 123, 255); transform-origin: 243.635px 339.375px;" id="elz02idz0s7g" class="animable"></polygon><g id="eloaoif745z1"><polygon points="235.06 416 241.19 416 251.66 270.37 252.2 263 244.07 263 243.63 270.37 235.06 416" style="fill: rgb(255, 255, 255); opacity: 0.5; isolation: isolate; transform-origin: 243.63px 339.5px;" class="animable"></polygon></g><g id="el7fbc0mjndwa"><polygon points="243.63 270 251.66 270 252.2 263 244.07 263 243.63 270" style="opacity: 0.2; isolation: isolate; transform-origin: 247.915px 266.5px;" class="animable"></polygon></g><polygon points="365.15 416 371.27 416 362.27 262.75 354.14 262.75 365.15 416" style="fill: rgb(64, 123, 255); transform-origin: 362.705px 339.375px;" id="el0tt7hzadyu9l" class="animable"></polygon><g id="elz8zkvicsb2c"><polygon points="354.14 263 354.68 270.37 365.15 416 371.27 416 362.71 270.37 362.27 263 354.14 263" style="fill: rgb(255, 255, 255); opacity: 0.5; isolation: isolate; transform-origin: 362.705px 339.5px;" class="animable"></polygon></g><g id="elejyf77w0n3k"><polygon points="362.27 263 354.14 263 354.68 270 362.71 270 362.27 263" style="opacity: 0.2; isolation: isolate; transform-origin: 358.425px 266.5px;" class="animable"></polygon></g><g id="elm4fak237mpb"><path d="M239.79,258.92H366.55a2.16,2.16,0,0,1,2.16,2.16v5.51a0,0,0,0,1,0,0H237.63a0,0,0,0,1,0,0v-5.51A2.16,2.16,0,0,1,239.79,258.92Z" style="fill: rgb(64, 123, 255); transform-origin: 303.17px 262.755px; transform: rotate(180deg);" class="animable"></path></g><g id="elhzfsomqhur"><path d="M239.79,258.92H366.55a2.16,2.16,0,0,1,2.16,2.16v5.51a0,0,0,0,1,0,0H237.63a0,0,0,0,1,0,0v-5.51A2.16,2.16,0,0,1,239.79,258.92Z" style="fill: rgb(255, 255, 255); opacity: 0.6; isolation: isolate; transform-origin: 303.17px 262.755px; transform: rotate(180deg);" class="animable"></path></g><g id="el2d8osemt834"><rect x="237.63" y="258.92" width="131.08" height="3.84" style="opacity: 0.2; isolation: isolate; transform-origin: 303.17px 260.84px; transform: rotate(180deg);" class="animable"></rect></g><path d="M233.83,259.92H372.51a2.17,2.17,0,0,0,2.16-2.17h0a2.16,2.16,0,0,0-2.16-2.16H233.83a2.16,2.16,0,0,0-2.16,2.16h0A2.17,2.17,0,0,0,233.83,259.92Z" style="fill: rgb(64, 123, 255); transform-origin: 303.17px 257.755px;" id="el5tm1unlh5kh" class="animable"></path><g id="el8im06pk0zwb"><path d="M233.83,259.92H372.51a2.17,2.17,0,0,0,2.16-2.17h0a2.16,2.16,0,0,0-2.16-2.16H233.83a2.16,2.16,0,0,0-2.16,2.16h0A2.17,2.17,0,0,0,233.83,259.92Z" style="fill: rgb(255, 255, 255); opacity: 0.6; isolation: isolate; transform-origin: 303.17px 257.755px;" class="animable"></path></g></g><defs>     <filter id="active" height="200%">         <feMorphology in="SourceAlpha" result="DILATED" operator="dilate" radius="2"></feMorphology>                <feFlood flood-color="#32DFEC" flood-opacity="1" result="PINK"></feFlood>        <feComposite in="PINK" in2="DILATED" operator="in" result="OUTLINE"></feComposite>        <feMerge>            <feMergeNode in="OUTLINE"></feMergeNode>            <feMergeNode in="SourceGraphic"></feMergeNode>        </feMerge>    </filter>    <filter id="hover" height="200%">        <feMorphology in="SourceAlpha" result="DILATED" operator="dilate" radius="2"></feMorphology>                <feFlood flood-color="#ff0000" flood-opacity="0.5" result="PINK"></feFlood>        <feComposite in="PINK" in2="DILATED" operator="in" result="OUTLINE"></feComposite>        <feMerge>            <feMergeNode in="OUTLINE"></feMergeNode>            <feMergeNode in="SourceGraphic"></feMergeNode>        </feMerge>            <feColorMatrix type="matrix" values="0   0   0   0   0                0   1   0   0   0                0   0   0   0   0                0   0   0   1   0 "></feColorMatrix>    </filter></defs></svg>
